<svg width="824" height="161" viewBox="0 0 824 161" fill="none" xmlns="http://www.w3.org/2000/svg">
<path d="M80.1702 160.67C76.7402 160.67 73.3002 160.64 69.8702 160.69C68.7802 160.7 67.9502 160.38 67.1902 159.61C45.1602 137.55 23.1302 115.52 1.08016 93.5001C0.300156 92.7201 0.0101561 91.8701 0.0101561 90.8001C0.0301561 83.9801 0.0501561 77.1601 0.000156137 70.3501C-0.00984386 68.8701 0.460156 67.7501 1.51016 66.7101C17.6002 50.7001 33.6602 34.6701 49.7302 18.6301C55.4302 12.9401 61.1402 7.26015 66.8102 1.54015C67.8402 0.490147 68.9601 -0.00985298 70.4501 0.000147021C77.1301 0.050147 83.8102 0.040147 90.4902 0.000147021C91.8102 0.000147021 92.8402 0.390147 93.7802 1.34015C115.51 23.1001 137.26 44.8401 159.02 66.5701C160.16 67.7101 160.72 68.9201 160.71 70.5701C160.65 77.3001 160.66 84.0201 160.71 90.7501C160.71 91.9401 160.37 92.8301 159.53 93.6701C137.71 115.46 115.89 137.27 94.1002 159.09C92.9902 160.2 91.7901 160.72 90.2001 160.68C86.8601 160.6 83.5202 160.66 80.1802 160.66L80.1702 160.67ZM80.5901 120.59C80.8401 120.36 81.1202 120.13 81.3702 119.88C94.2802 106.97 107.18 94.0601 120.11 81.1701C120.78 80.5001 120.82 80.1701 120.13 79.4801C107.2 66.6001 94.2902 53.6901 81.4102 40.7501C80.6002 39.9401 80.1802 40.0801 79.4602 40.8001C66.6002 53.6901 53.7302 66.5701 40.8302 79.4201C40.1402 80.1001 40.1502 80.4701 40.8302 81.1301C43.8402 84.0701 46.8002 87.0701 49.7802 90.0401C59.6802 99.9401 69.5802 109.84 79.4902 119.73C79.8002 120.04 80.0402 120.47 80.6002 120.57L80.5901 120.59ZM75.5302 155.33C75.6102 155.47 75.6802 155.61 75.7602 155.75C79.9102 155.75 84.0602 155.7 88.2102 155.77C89.9502 155.8 91.2602 155.18 92.4602 153.97C112.77 133.64 133.08 113.32 153.43 93.0201C154.35 92.1101 154.43 91.6301 153.46 90.6701C139.67 76.9501 125.93 63.1901 112.18 49.4401C105.64 42.9001 99.1001 36.3801 92.5901 29.8201C91.8601 29.0801 91.4202 28.9501 90.6502 29.7801C88.8402 31.7201 86.9701 33.6101 85.0201 35.4101C84.0901 36.2701 84.1501 36.7401 85.0201 37.6201C101.78 54.3201 118.5 71.0501 135.23 87.7801C136.39 88.9401 137.54 90.1301 138.73 91.2601C139.24 91.7501 139.3 92.0801 138.75 92.5801C137.77 93.4701 136.83 94.4101 135.89 95.3501C116.13 115.07 96.3802 134.78 76.6102 154.49C76.2902 154.81 75.8801 155.05 75.5201 155.32L75.5302 155.33ZM155.13 85.1001C155.32 84.9701 155.5 84.8301 155.69 84.7001C155.69 80.5901 155.67 76.4901 155.7 72.3801C155.71 70.8701 155.21 69.6901 154.12 68.6001C146.46 60.9901 138.86 53.3201 131.22 45.6901C118.6 33.0701 105.97 20.4701 93.3401 7.86015C92.2535 6.77348 91.1568 6.78681 90.0502 7.90015C80.0502 17.9001 70.0502 27.8901 60.0502 37.8901C49.9202 48.0201 39.8002 58.1501 29.6502 68.2501C28.8702 69.0201 28.8902 69.4401 29.6602 70.1701C31.5602 71.9601 33.4002 73.8101 35.1902 75.7001C35.9102 76.4501 36.3402 76.5501 37.1302 75.7401C40.8902 71.9301 44.7302 68.2001 48.5202 64.4201C62.5502 50.4301 76.5802 36.4401 90.5602 22.4101C91.5802 21.3901 92.0502 21.5101 92.9802 22.4501C113.37 42.8901 133.8 63.3001 154.2 83.7301C154.58 84.1101 154.81 84.6401 155.11 85.1001H155.13ZM84.8302 4.99015C80.4002 4.99015 76.1002 4.99015 71.8002 4.99015C70.6702 4.99015 69.8302 5.53015 69.0502 6.31015C58.8102 16.5201 48.5402 26.7001 38.3002 36.9201C30.9502 44.2601 23.6502 51.6501 16.3202 59.0101C13.2802 62.0601 10.2802 65.1401 7.15016 68.0901C6.36016 68.8401 6.35016 69.1101 7.08016 69.8301C11.8302 74.5201 16.5502 79.2601 21.2702 83.9901C36.9302 99.6501 52.6002 115.31 68.2502 130.99C69.0002 131.74 69.4102 131.81 70.1602 131.01C71.9502 129.12 73.8002 127.27 75.7402 125.52C76.6902 124.66 76.6202 124.19 75.7402 123.31C57.9501 105.57 40.2002 87.7901 22.4002 70.0601C21.4802 69.1501 21.4102 68.6901 22.3702 67.7301C42.8602 47.3101 63.3002 26.8601 83.7502 6.40015C84.1202 6.03015 84.6202 5.74015 84.8302 4.99015ZM5.41016 75.7801C5.27016 75.8701 5.12016 75.9601 4.98016 76.0501C4.98016 80.1101 5.01016 84.1701 4.96016 88.2301C4.94016 89.8601 5.52016 91.1201 6.66016 92.2601C27.0202 112.66 47.3801 133.07 67.7001 153.52C68.6601 154.48 69.1202 154.41 70.0402 153.49C90.3002 133.18 110.59 112.9 130.88 92.6201C131.01 92.4901 131.13 92.3401 131.27 92.2401C131.85 91.8101 131.79 91.4501 131.27 90.9601C129.34 89.0801 127.4 87.1901 125.57 85.2201C124.71 84.3001 124.22 84.3401 123.34 85.2301C105.69 102.97 88.0002 120.68 70.3202 138.39C68.8102 139.9 69.2302 139.9 67.7602 138.44C47.3102 118 26.8602 97.5501 6.42016 77.1001C6.04016 76.7201 5.75016 76.2301 5.42016 75.8001L5.41016 75.7801Z" fill="#57AFC2"/>
<path d="M228.18 28V29.5C228.18 44.37 228.16 59.25 228.21 74.12C228.21 75.36 227.93 75.75 226.64 75.72C222.75 75.63 218.86 75.66 214.97 75.71C214.07 75.72 213.8 75.47 213.8 74.56C213.82 52.91 213.82 31.27 213.8 9.61997C213.8 8.76997 213.98 8.42997 214.93 8.43997C220.93 8.48997 226.92 8.48997 232.92 8.43997C233.93 8.43997 234.1 8.99997 234.37 9.68997C239.44 22.75 244.52 35.81 249.61 48.87C249.77 49.28 249.83 49.74 250.33 50.18C251.13 48.13 251.91 46.17 252.68 44.2C257.17 32.67 261.66 21.15 266.11 9.59997C266.45 8.72997 266.84 8.43997 267.78 8.43997C273.68 8.48997 279.59 8.48997 285.49 8.43997C286.52 8.43997 286.77 8.68997 286.77 9.71997C286.74 31.27 286.74 52.83 286.77 74.38C286.77 75.5 286.44 75.73 285.39 75.72C281.5 75.66 277.61 75.66 273.72 75.72C272.59 75.74 272.26 75.45 272.26 74.29C272.3 59.46 272.29 44.64 272.29 29.81C272.29 29.26 272.29 28.72 272.29 28.01C271.65 28.47 271.59 29.08 271.39 29.57C265.53 44.53 259.67 59.49 253.85 74.47C253.5 75.36 253.12 75.8 252.1 75.72C250.87 75.62 249.63 75.63 248.4 75.72C247.43 75.79 246.97 75.45 246.61 74.52C240.71 59.33 234.76 44.16 228.83 28.98C228.7 28.65 228.57 28.32 228.44 27.99C228.35 27.99 228.26 28.01 228.17 28.01L228.18 28Z" fill="#48484A"/>
<path d="M670.92 38.42C676.55 38.42 682.18 38.45 687.81 38.39C688.92 38.38 689.16 38.71 689.13 39.76C688.96 46.84 687.73 53.66 684.46 60.02C680.3 68.13 673.8 73.4 664.96 75.61C654.82 78.14 645.01 77.3 636.03 71.67C626.02 65.4 620.85 56.12 620.15 44.36C619.66 36.07 621.47 28.35 626.38 21.55C632.26 13.41 640.44 9.08003 650.24 7.73003C657.44 6.74003 664.47 7.38003 671.1 10.69C676.14 13.21 680.04 16.98 683.19 21.59C683.61 22.2 683.53 22.46 682.89 22.8C679.51 24.61 676.14 26.46 672.79 28.32C672.18 28.66 671.85 28.69 671.35 28.06C665.53 20.81 657.88 18.37 649.38 20.97C641.4 23.42 635.72 30.71 634.93 39.37C634.52 43.84 635.06 48.13 636.91 52.23C642.06 63.69 655.25 66.34 663.61 62.66C668.39 60.55 671.28 56.76 673.08 52C673.48 50.94 672.85 51.01 672.16 51.01C666.07 51.01 659.99 50.97 653.9 51.05C652.64 51.07 652.38 50.69 652.41 49.51C652.49 46.22 652.47 42.92 652.41 39.63C652.39 38.69 652.64 38.39 653.62 38.4C659.39 38.45 665.15 38.42 670.92 38.42Z" fill="#48484A"/>
<path d="M619.23 153.25C610.11 153.57 602.2 150.92 595.45 145.15C588.34 139.07 584.72 131.14 584.01 121.91C583.23 111.87 585.67 102.73 592.5 95.1C598.65 88.22 606.55 84.78 615.67 84.05C623.87 83.39 631.65 84.85 638.65 89.31C647.91 95.22 652.8 103.87 653.94 114.69C654.84 123.24 653.28 131.34 648.41 138.51C641.89 148.12 632.63 152.89 621.06 153.26C620.37 153.28 619.69 153.26 619.24 153.26L619.23 153.25ZM598.61 118.7C598.62 121.18 598.87 123.64 599.6 126.01C601.91 133.56 606.7 138.72 614.57 140.26C622.67 141.85 629.77 139.79 634.98 133.02C638.5 128.44 639.61 123.07 639.4 117.38C639 106.77 632.01 95.64 617.2 96.68C611.42 97.09 606.64 99.48 603.14 104.16C599.93 108.46 598.61 113.38 598.61 118.69V118.7Z" fill="#48484A"/>
<path d="M727.86 7.34003C738.68 7.48003 748.03 11.01 755.11 19.46C761.22 26.77 763.45 35.38 762.86 44.77C762.34 52.98 759.49 60.27 753.8 66.3C747.97 72.47 740.69 75.76 732.3 76.65C723.88 77.54 715.87 76.22 708.59 71.74C699.19 65.95 694.19 57.33 692.95 46.47C692 38.08 693.45 30.14 698 22.95C703.64 14.04 711.95 9.27003 722.26 7.72003C724.12 7.44003 725.99 7.40003 727.88 7.35003L727.86 7.34003ZM707.42 41.8C707.31 53.7 714.51 63.52 726.46 64.14C734.53 64.56 740.94 61.51 745.11 54.43C748.22 49.16 748.81 43.37 747.82 37.44C746.49 29.47 741.21 21.4 730.53 20.21C721.37 19.18 713.31 22.98 709.42 31.98C708.02 35.22 707.37 38.6 707.43 41.8H707.42Z" fill="#48484A"/>
<path d="M402.96 118.61C402.96 107.9 402.98 97.19 402.93 86.48C402.93 85.27 403.23 84.96 404.44 84.97C414.37 85.02 424.3 84.99 434.24 85C439.82 85 445.03 86.26 449.5 89.81C454.01 93.4 456.37 98.19 456.98 103.82C457.63 109.81 456.49 115.39 452.63 120.21C450.21 123.23 447.1 125.25 443.41 126.32C442.46 126.59 442.42 126.84 442.9 127.65C447.55 135.41 452.17 143.19 456.78 150.98C456.98 151.32 457.44 151.66 457.22 152.05C457 152.44 456.47 152.22 456.08 152.22C451.5 152.23 446.93 152.2 442.35 152.25C441.35 152.26 440.81 151.97 440.33 151.08C436.39 143.86 432.39 136.68 428.44 129.47C428 128.66 427.53 128.28 426.54 128.31C423.89 128.39 421.23 128.38 418.58 128.31C417.56 128.28 417.26 128.57 417.27 129.61C417.32 136.7 417.27 143.8 417.32 150.89C417.32 151.97 417.04 152.27 415.96 152.25C412.07 152.18 408.18 152.18 404.29 152.25C403.17 152.27 402.94 151.91 402.95 150.86C402.99 140.11 402.97 129.35 402.97 118.6L402.96 118.61ZM417.29 106.7C417.29 109.4 417.3 112.09 417.28 114.79C417.28 115.45 417.41 115.8 418.18 115.78C423.43 115.69 428.69 115.96 433.94 115.63C437.69 115.4 440.9 112.95 441.95 109.73C443.87 103.83 440.37 98.33 434.17 97.77C428.84 97.28 423.48 97.68 418.14 97.57C417.33 97.55 417.28 97.99 417.29 98.61C417.31 101.31 417.29 104 417.29 106.7Z" fill="#48484A"/>
<path d="M612.28 75.69C609.99 75.69 607.7 75.65 605.41 75.71C604.55 75.73 604.13 75.49 603.83 74.63C602.74 71.53 601.52 68.48 600.42 65.38C600.13 64.56 599.79 64.26 598.9 64.26C590.02 64.3 581.14 64.3 572.26 64.26C571.34 64.26 571.01 64.62 570.73 65.4C569.64 68.45 568.48 71.48 567.39 74.53C567.09 75.37 566.71 75.74 565.74 75.72C561.21 75.66 556.68 75.67 552.15 75.71C551.07 75.71 550.69 75.62 551.17 74.39C559.54 52.76 567.88 31.12 576.2 9.48001C576.49 8.74001 576.84 8.44001 577.67 8.44001C582.93 8.48001 588.2 8.50002 593.46 8.43002C594.5 8.42002 594.75 8.93001 595.05 9.70001C601.11 25.46 607.19 41.22 613.27 56.98C615.52 62.82 617.73 68.67 620.04 74.48C620.5 75.63 620.18 75.74 619.14 75.71C616.85 75.65 614.56 75.69 612.27 75.69H612.28ZM596.05 51.63C592.57 42.03 589.15 32.58 585.6 22.76C582.04 32.58 578.6 42.06 575.13 51.63H596.05Z" fill="#48484A"/>
<path d="M467.8 118.54C467.8 107.83 467.82 97.13 467.77 86.42C467.77 85.28 468.07 84.97 469.21 84.98C484.13 85.02 499.05 85.02 513.96 84.98C515.21 84.98 515.48 85.35 515.45 86.52C515.37 89.77 515.37 93.02 515.45 96.26C515.48 97.37 515.12 97.62 514.06 97.61C503.99 97.57 493.92 97.61 483.86 97.56C482.53 97.56 482.04 97.78 482.08 99.26C482.2 102.92 482.17 106.58 482.09 110.24C482.07 111.42 482.33 111.79 483.59 111.78C493.47 111.72 503.36 111.78 513.24 111.72C514.47 111.72 514.75 112.03 514.72 113.22C514.63 116.51 514.64 119.81 514.72 123.1C514.74 124.17 514.4 124.37 513.41 124.37C503.48 124.33 493.55 124.37 483.62 124.32C482.45 124.32 482.06 124.56 482.09 125.81C482.18 129.97 482.16 134.14 482.09 138.3C482.07 139.39 482.39 139.68 483.47 139.68C493.58 139.64 503.7 139.68 513.81 139.63C515.15 139.63 515.49 140 515.45 141.31C515.35 144.56 515.4 147.81 515.43 151.05C515.43 151.85 515.34 152.27 514.34 152.27C499.19 152.24 484.05 152.23 468.9 152.27C467.79 152.27 467.78 151.77 467.78 150.94C467.8 140.14 467.79 129.34 467.79 118.55L467.8 118.54Z" fill="#48484A"/>
<path d="M213.83 118.59C213.83 107.88 213.85 97.18 213.8 86.47C213.8 85.24 214.13 84.96 215.32 84.97C230.19 85.01 245.06 85.02 259.93 84.97C261.23 84.97 261.51 85.36 261.48 86.58C261.4 89.83 261.41 93.08 261.48 96.32C261.5 97.35 261.22 97.62 260.19 97.61C250.03 97.57 239.87 97.61 229.72 97.55C228.42 97.55 228.14 97.94 228.16 99.15C228.24 102.9 228.23 106.65 228.16 110.4C228.14 111.5 228.47 111.76 229.53 111.75C239.46 111.71 249.39 111.75 259.32 111.7C260.49 111.7 260.75 112.02 260.73 113.14C260.65 116.39 260.63 119.64 260.73 122.88C260.77 124.16 260.33 124.35 259.18 124.35C249.34 124.31 239.5 124.35 229.67 124.3C228.5 124.3 228.12 124.53 228.15 125.78C228.24 129.9 228.25 134.02 228.15 138.13C228.12 139.48 228.6 139.66 229.77 139.66C239.84 139.62 249.9 139.66 259.97 139.61C261.16 139.61 261.52 139.88 261.49 141.11C261.39 144.4 261.43 147.7 261.48 150.99C261.49 151.91 261.3 152.25 260.29 152.25C245.19 152.22 230.09 152.21 214.99 152.25C213.79 152.25 213.82 151.68 213.82 150.83C213.83 140.08 213.82 129.33 213.82 118.58L213.83 118.59Z" fill="#48484A"/>
<path d="M796.69 76.89C787.36 76.93 778.78 74.64 771.33 68.81C769.277 67.2033 768.987 65.3567 770.46 63.27C772.14 60.88 773.86 58.51 775.5 56.08C776.05 55.26 776.32 55.07 777.17 55.87C783.84 62.12 791.7 65.02 800.87 64C803.63 63.69 806.13 62.8 807.93 60.52C810.36 57.46 809.62 53.94 806.16 52.18C801.96 50.04 797.36 49.18 792.83 48.11C788.42 47.07 784.02 46 780.06 43.71C775.81 41.25 772.41 38.05 771.21 33.06C769.08 24.25 772.68 15.9 780.58 11.28C785.89 8.17002 791.7 7.28002 797.75 7.48002C806.14 7.77002 813.88 9.96002 820.55 15.29C822.39 16.76 822.4 16.75 820.97 18.67C819.03 21.28 817.07 23.86 815.17 26.49C814.61 27.26 814.31 27.46 813.43 26.73C807.24 21.58 800.05 19.63 792.09 20.37C790.38 20.53 788.8 21.13 787.46 22.25C784.26 24.92 784.74 29.15 788.47 30.95C792.37 32.83 796.62 33.59 800.78 34.63C805.21 35.74 809.66 36.82 813.7 39.04C818.34 41.59 822.17 44.93 823.37 50.35C825.4 59.54 822.68 70.82 808.74 75.27C804.82 76.52 800.79 76.92 796.7 76.9L796.69 76.89Z" fill="#48484A"/>
<path d="M550.79 153.19C541.49 153.67 533.5 151.44 526.31 146.41C525.03 145.52 523.86 144.49 522.68 143.48C522.04 142.93 522.07 142.56 522.54 141.91C524.79 138.8 527.01 135.66 529.17 132.49C529.74 131.65 530.03 131.79 530.67 132.39C537.22 138.53 544.94 141.44 553.95 140.61C556.65 140.36 559.15 139.62 561.09 137.55C564.01 134.44 563.36 130.51 559.56 128.63C555.47 126.6 551.01 125.73 546.62 124.7C542.12 123.64 537.63 122.57 533.59 120.23C529.17 117.67 525.7 114.27 524.63 109.03C522.85 100.34 526.41 92.4 534.06 87.87C537.7 85.71 541.67 84.52 545.86 84.2C555.02 83.49 563.72 84.89 571.58 90C572.89 90.85 574.11 91.81 575.29 92.82C575.78 93.24 575.8 93.54 575.41 94.06C573.07 97.16 570.75 100.28 568.45 103.42C568.03 104 567.74 103.89 567.27 103.48C561.67 98.63 555.05 96.7 547.77 96.72C545.79 96.72 543.85 97.07 542.09 98.07C540.6 98.91 539.52 100.1 539.1 101.81C538.5 104.26 539.23 105.99 541.46 107.2C543.8 108.48 546.36 109.18 548.92 109.86C553.64 111.11 558.46 111.98 563.05 113.71C566.14 114.88 569.05 116.37 571.6 118.53C576.34 122.55 578.04 127.75 577.42 133.75C576.41 143.65 570.46 150.02 560.15 152.43C558.73 152.76 557.28 153.08 555.83 153.17C553.96 153.3 552.08 153.2 550.76 153.2L550.79 153.19Z" fill="#48484A"/>
<path d="M687.86 153.22C679.13 153.67 671.14 151.44 663.94 146.42C662.66 145.53 661.5 144.5 660.31 143.49C659.69 142.96 659.68 142.59 660.16 141.92C662.41 138.81 664.62 135.67 666.79 132.5C667.33 131.72 667.6 131.72 668.28 132.36C674.86 138.56 682.63 141.46 691.69 140.6C694.38 140.35 696.88 139.57 698.79 137.47C701.64 134.35 700.98 130.53 697.22 128.65C693.13 126.61 688.67 125.75 684.28 124.71C680.01 123.7 675.73 122.71 671.84 120.57C666.96 117.89 663.14 114.32 662.17 108.52C660.58 99.02 664.93 90.91 673.71 86.79C678.91 84.35 684.41 83.78 690.04 84.08C698.04 84.5 705.4 86.77 711.74 91.84C712.96 92.8133 713.093 93.94 712.14 95.22C710.2 97.82 708.23 100.4 706.35 103.05C705.73 103.92 705.39 103.89 704.59 103.23C698.33 98.09 691.12 96.1 683.1 96.94C681.29 97.13 679.64 97.81 678.3 99.09C675.44 101.83 676.02 105.68 679.55 107.43C682.48 108.89 685.65 109.59 688.79 110.4C693.47 111.61 698.25 112.5 702.69 114.52C704.69 115.43 706.61 116.47 708.37 117.81C713.79 121.95 715.81 127.52 715.02 134.13C713.86 143.83 707.94 150 697.8 152.43C694.51 153.22 691.2 153.34 687.84 153.21L687.86 153.22Z" fill="#48484A"/>
<path d="M360.65 30.85C360.65 37.67 360.84 44.49 360.61 51.3C360.15 64.84 351.16 74.54 337.69 76.35C330.34 77.34 323.07 77.2 316.07 74.43C306.95 70.83 301.92 63.98 300.47 54.38C300.12 52.07 300.03 49.74 300.03 47.4C300.03 34.91 300.05 22.41 300 9.91998C300 8.69998 300.3 8.37998 301.52 8.40998C305.27 8.48998 309.03 8.49998 312.78 8.40998C314.15 8.37998 314.6 8.65998 314.59 10.15C314.52 22.69 314.55 35.23 314.55 47.77C314.55 49.84 314.74 51.88 315.3 53.88C316.92 59.59 321.27 63.29 327.16 63.98C329.96 64.31 332.74 64.28 335.48 63.63C340.99 62.32 344.83 58.05 345.8 52.26C346.05 50.76 346.11 49.26 346.11 47.75C346.11 35.12 346.12 22.49 346.08 9.85998C346.08 8.71998 346.38 8.39998 347.51 8.41998C351.45 8.48998 355.38 8.48998 359.32 8.41998C360.44 8.39998 360.78 8.67998 360.77 9.83998C360.71 16.84 360.74 23.84 360.74 30.85C360.71 30.85 360.67 30.85 360.64 30.85H360.65Z" fill="#48484A"/>
<path d="M333.37 152.23C331.52 152.23 329.7 152.23 327.89 152.23C324.5 152.23 321.11 152.2 317.73 152.25C316.8 152.27 316.26 151.96 315.73 151.19C310.75 143.85 305.72 136.54 300.71 129.22C299.99 128.173 299.257 128.193 298.51 129.28C293.48 136.59 288.45 143.89 283.44 151.21C283.01 151.84 282.6 152.26 281.72 152.26C276.73 152.21 271.74 152.24 266.75 152.23C266.49 152.23 266.23 152.2 265.95 152.18C265.95 151.6 266.34 151.31 266.59 150.95C274.16 140.23 281.73 129.51 289.35 118.82C289.93 118.01 289.89 117.5 289.34 116.71C282.24 106.61 275.18 96.48 268.11 86.36C267.85 85.99 267.61 85.6 267.36 85.22C267.74 84.83 268.17 85.01 268.55 85.01C273.36 85 278.16 85.03 282.97 84.98C283.92 84.97 284.44 85.3 284.95 86.07C289.53 92.96 294.16 99.82 298.77 106.69C299.35 107.55 299.917 107.567 300.47 106.74C305.02 99.88 309.59 93.04 314.09 86.15C314.67 85.27 315.28 84.97 316.31 84.98C321.47 85.03 326.64 85 331.91 85C331.8 85.67 331.38 86.04 331.08 86.46C324.05 96.5 317.03 106.54 309.96 116.55C309.35 117.41 309.37 117.92 309.97 118.77C317.55 129.43 325.07 140.13 332.61 150.82C332.89 151.21 333.29 151.55 333.37 152.23Z" fill="#48484A"/>
<path d="M502.19 42.01C502.19 31.26 502.2 20.51 502.17 9.75999C502.17 8.77999 502.36 8.42999 503.44 8.42999C513.83 8.47999 524.21 8.42999 534.6 8.50999C541.26 8.56999 547.17 10.69 551.43 16.01C556.87 22.81 557.66 30.56 554.64 38.52C551.72 46.2 545.7 50.31 537.63 51.4C533.13 52.01 528.58 51.56 524.06 51.66C521.96 51.7 519.85 51.72 517.75 51.64C516.76 51.6 516.55 51.94 516.55 52.87C516.59 59.96 516.53 67.05 516.6 74.14C516.61 75.44 516.22 75.73 515 75.71C511.16 75.63 507.31 75.64 503.47 75.71C502.42 75.73 502.18 75.4 502.18 74.39C502.22 63.59 502.2 52.8 502.2 42L502.19 42.01ZM516.55 30.01C516.55 32.71 516.57 35.41 516.54 38.1C516.54 38.77 516.66 39.08 517.43 39.07C522.6 39.03 527.77 39.12 532.93 38.98C537.05 38.87 540.52 36.06 541.34 32.52C542.79 26.29 538.83 21.26 532.24 21.11C527.35 21 522.45 21.11 517.56 21.06C516.64 21.06 516.52 21.42 516.54 22.19C516.58 24.8 516.55 27.4 516.55 30.01Z" fill="#48484A"/>
<path d="M339.99 118.65C339.99 107.9 340.01 97.15 339.96 86.4C339.96 85.26 340.26 84.97 341.4 84.97C351.28 85.02 361.17 85 371.05 85C377.7 85 383.84 86.58 388.42 91.69C394.44 98.41 395.52 106.34 392.58 114.62C389.71 122.7 383.49 127.03 375.06 127.98C368.73 128.69 362.35 128.17 356 128.23C354.7 128.24 354.24 128.43 354.26 129.89C354.35 136.93 354.28 143.98 354.32 151.03C354.32 151.97 354.11 152.27 353.12 152.26C349.19 152.2 345.25 152.2 341.32 152.26C340.24 152.28 339.96 151.99 339.96 150.91C340 140.16 339.99 129.41 339.99 118.66V118.65ZM354.3 106.55C354.3 109.25 354.3 111.95 354.3 114.65C354.3 115.24 354.26 115.68 355.12 115.67C360.29 115.62 365.46 115.74 370.62 115.57C374.76 115.44 378.13 112.78 379.07 109.31C380.62 103.56 377.13 98.33 371.19 97.78C365.86 97.29 360.49 97.69 355.15 97.57C354.32 97.55 354.3 97.97 354.3 98.59C354.32 101.24 354.3 103.9 354.3 106.55Z" fill="#48484A"/>
<path d="M445.81 48.39C445.81 57.04 445.79 65.69 445.83 74.34C445.83 75.4 445.58 75.74 444.48 75.72C440.59 75.65 436.7 75.64 432.81 75.72C431.61 75.75 431.42 75.33 431.42 74.25C431.45 57.09 431.42 39.93 431.48 22.77C431.48 21.37 431.13 21.04 429.76 21.06C424.18 21.14 418.59 21.06 413.01 21.12C411.98 21.12 411.7 20.85 411.72 19.82C411.79 16.39 411.77 12.96 411.72 9.52C411.71 8.67 411.98 8.44 412.81 8.44C429.97 8.46 447.13 8.46 464.3 8.44C465.25 8.44 465.44 8.77 465.43 9.62C465.39 13.05 465.38 16.48 465.43 19.92C465.45 20.93 465.07 21.12 464.16 21.11C458.49 21.07 452.81 21.12 447.14 21.07C446.03 21.06 445.79 21.4 445.79 22.46C445.83 31.11 445.81 39.76 445.81 48.41V48.39Z" fill="#48484A"/>
<path d="M373.47 42.03C373.47 31.28 373.49 20.53 373.44 9.78002C373.44 8.68002 373.75 8.42002 374.81 8.43002C378.7 8.49002 382.59 8.51002 386.48 8.43002C387.69 8.40002 387.86 8.82002 387.86 9.90002C387.83 27.1 387.86 44.3 387.8 61.5C387.8 62.83 388.13 63.15 389.45 63.14C397.96 63.07 406.47 63.13 414.98 63.08C416.07 63.08 416.37 63.37 416.34 64.45C416.27 67.79 416.3 71.13 416.33 74.47C416.33 75.28 416.23 75.7 415.23 75.7C401.64 75.67 388.05 75.67 374.47 75.7C373.37 75.7 373.46 75.14 373.46 74.42C373.46 63.62 373.46 52.83 373.46 42.03H373.47Z" fill="#48484A"/>
<path d="M474.58 42.06C474.58 31.4 474.62 20.75 474.54 10.09C474.53 8.63002 474.97 8.39002 476.28 8.42002C480.07 8.51002 483.87 8.48002 487.67 8.43002C488.59 8.42002 488.91 8.60002 488.91 9.61002C488.88 31.24 488.88 52.87 488.91 74.5C488.91 75.5 488.59 75.7 487.67 75.69C483.74 75.64 479.8 75.62 475.87 75.7C474.71 75.72 474.56 75.3 474.56 74.3C474.59 63.55 474.58 52.81 474.58 42.06Z" fill="#48484A"/>
<path d="M184.88 80.33C184.88 56.53 184.89 32.74 184.85 8.93999C184.85 7.58999 185.19 7.26999 186.5 7.30999C189.75 7.40999 189.75 7.33999 189.75 10.61C189.75 57.65 189.75 104.7 189.75 151.74C189.75 153.74 189.98 153.47 187.99 153.48C184.89 153.5 184.89 153.48 184.89 150.35V80.33H184.88Z" fill="#48484A"/>
</svg>
