<svg width="84" height="27" viewBox="0 0 84 27" fill="none" xmlns="http://www.w3.org/2000/svg">
<path d="M17.7938 19.8081H12.3885V17.7602H12.3214C11.1463 20.211 8.79618 20.4124 7.35254 20.4124C6.17747 20.4124 3.42447 20.1439 1.71223 17.9952C0.201439 16.1151 0 14.7386 0 12.1199V0.671387H5.74102V11.2805C5.74102 12.5899 5.74102 15.1079 8.79618 15.1079C10.4413 15.1079 12.0864 14.235 12.0864 11.2134V0.671387H17.7938V19.8081Z" fill="#FF3A00"/>
<path d="M38.9453 13.7986C38.0053 15.9473 36.6623 17.5924 35.0508 18.7003C33.4729 19.8418 31.5592 20.4125 29.612 20.4125C24.1395 20.4125 19.4729 15.9473 19.4729 10.2734C19.4393 4.93526 23.6359 0 29.4777 0C35.3194 0 39.5832 4.6331 39.5832 10.4748C39.5832 11.247 39.5161 11.5492 39.4489 11.9856H25.0796C25.4153 14.2686 27.329 15.6115 29.5784 15.6115C31.3242 15.6115 32.2643 14.8058 33.07 13.8322H38.9453V13.7986ZM33.8758 8.12472C33.6408 6.98323 32.4993 4.83454 29.5112 4.83454C26.5568 4.83454 25.4153 6.98323 25.1467 8.12472H33.8758Z" fill="#FF3A00"/>
<path d="M41.2949 0.671339H46.6666V2.78645H46.7002H46.7674C47.9088 1.3428 49.7889 0.0334473 52.7434 0.0334473C59.5588 0.0334473 62.1103 6.00948 62.1103 10.4411C62.1103 15.9472 58.2494 20.4795 52.777 20.4795C49.3189 20.4795 47.7074 18.8345 47.0024 18.0958V26.187H41.2949V0.671339ZM56.3693 10.2397C56.3693 7.95673 54.7242 5.33802 51.5683 5.33802C48.4124 5.33802 46.7674 7.95673 46.7674 10.2397C46.7674 12.657 48.5467 15.1078 51.5683 15.1078C54.5899 15.1078 56.3693 12.657 56.3693 10.2397Z" fill="#FF3A00"/>
<path d="M83.9664 19.8082H78.2254V17.7267H78.1583C77.1846 19.6068 74.8009 20.4461 72.5515 20.4461C66.4748 20.4461 62.916 15.6787 62.916 10.2063C62.9496 3.92807 67.482 0 72.5851 0C75.741 0 77.4868 1.51079 78.1918 2.68586H78.259V0.671464H84V19.8082H83.9664ZM73.458 15.1079C77.0503 15.1079 78.259 12.0864 78.259 10.2063C78.259 7.88971 76.681 5.33814 73.4244 5.33814C70.1343 5.33814 68.6906 8.09115 68.6906 10.2734C68.6906 12.0864 70 15.1079 73.458 15.1079Z" fill="#FF3A00"/>
</svg>
