<svg width="120" height="20" viewBox="0 0 120 20" fill="none" xmlns="http://www.w3.org/2000/svg">
<path d="M64.7244 15.4972V2.87372H62.8633V0.131348H69.6502V2.87372H67.789V15.4972H64.7244Z" fill="#94A3B8"/>
<path d="M73.5041 15.4972H70.4395V0.131348H73.5041V15.4972Z" fill="#94A3B8"/>
<path d="M82.1489 8.71376V12.7747C82.1489 14.6852 81.2085 15.6289 79.3046 15.6289H77.4205C75.5166 15.6289 74.5762 14.6852 74.5762 12.7747V2.85417C74.5762 0.943717 75.5166 0 77.4205 0H79.2586C81.1625 0 82.1029 0.943717 82.1029 2.85417V6.45476H79.081V3.18299C79.081 2.80813 78.9067 2.63386 78.5352 2.63386H78.1833C77.8118 2.63386 77.6375 2.80813 77.6375 3.18299V12.4459C77.6375 12.8207 77.8118 12.995 78.1833 12.995H78.5779C78.9495 12.995 79.1238 12.8207 79.1238 12.4459V8.71376H82.1456H82.1489Z" fill="#94A3B8"/>
<path d="M87.7977 15.4972L86.2423 8.23022V15.4972H83.1777V0.131348H86.2423V7.35226L87.9522 0.131348H91.1253L89.113 7.68108L91.0398 15.4939H87.801L87.7977 15.4972Z" fill="#94A3B8"/>
<path d="M97.3208 0.131348V2.87372H94.6935V6.31976H97.2123V9.06213H94.6935V12.7482H97.3635V15.4906H91.6289V0.131348H97.3208Z" fill="#94A3B8"/>
<path d="M99.8816 15.4972V2.87372H98.0205V0.131348H104.807V2.87372H102.946V15.4972H99.8816Z" fill="#94A3B8"/>
<path d="M112.775 9.94355V12.7747C112.775 14.6852 111.835 15.6289 109.931 15.6289H108.225C106.321 15.6289 105.38 14.6852 105.38 12.7747V9.50293H108.379V12.4886C108.379 12.8635 108.553 13.0378 108.925 13.0378H109.211C109.583 13.0378 109.757 12.8635 109.757 12.4886V10.6439C109.757 10.1606 109.602 9.92054 109.231 9.65748L106.603 7.70428C105.663 7.02362 105.377 6.38571 105.377 5.29073V2.85417C105.377 0.943717 106.317 0 108.221 0H109.885C111.789 0 112.729 0.943717 112.729 2.85417V5.6623H109.731V3.13695C109.731 2.7621 109.556 2.58782 109.185 2.58782H108.945C108.573 2.58782 108.399 2.7621 108.399 3.13695V4.58706C108.399 5.07042 108.553 5.31046 108.925 5.57352L111.552 7.52672C112.493 8.20738 112.779 8.79926 112.779 9.94027L112.775 9.94355Z" fill="#94A3B8"/>
<path d="M116.577 7.81259C116.577 5.91529 118.109 4.37969 120 4.37969V0.798828H114.413V14.8296H120V11.2488C118.109 11.2488 116.577 9.71317 116.577 7.81587V7.81259Z" fill="#94A3B8"/>
<path d="M12.2946 15.1687H8.55264V13.7581H8.50332C7.69442 15.4548 6.07333 15.5962 5.07371 15.5962C4.26481 15.5962 2.35765 15.4055 1.19033 13.9225C0.141393 12.6072 0 11.6536 0 9.83852V1.91064H3.95572V9.24665C3.95572 10.1542 3.95572 11.8969 6.07662 11.8969C7.22091 11.8969 8.33891 11.2985 8.33891 9.19732V1.91064H12.2946V15.1687Z" fill="#94A3B8"/>
<path d="M26.875 11.0121C26.2305 12.4918 25.3033 13.6394 24.182 14.4055C23.087 15.1947 21.775 15.5991 20.417 15.5991C16.629 15.5991 13.4131 12.5181 13.4131 8.57552C13.4131 4.873 16.3199 1.45654 20.3479 1.45654C24.376 1.45654 27.3288 4.65926 27.3288 8.6939C27.3288 9.22001 27.2795 9.43375 27.2334 9.74613H17.3228C17.5595 11.3245 18.8715 12.255 20.4203 12.255C21.6369 12.255 22.2781 11.7059 22.8272 11.0121H26.8783H26.875ZM23.3731 7.06952C23.2054 6.28035 22.4195 4.80066 20.3709 4.80066C18.3224 4.80066 17.5365 6.28035 17.3688 7.06952H23.3731Z" fill="#94A3B8"/>
<path d="M28.4961 1.91032H32.2118V3.36699H32.2841C33.07 2.36409 34.382 1.45654 36.4042 1.45654C41.0965 1.45654 42.8623 5.58983 42.8623 8.67088C42.8623 12.4918 40.1923 15.6222 36.4305 15.6222C34.0466 15.6222 32.9286 14.4746 32.4518 13.9748V19.5877H28.4961V1.91032ZM38.9066 8.55251C38.9066 6.97416 37.7623 5.15907 35.5953 5.15907C33.4284 5.15907 32.2841 6.97416 32.2841 8.55251C32.2841 10.2262 33.5238 11.9196 35.5953 11.9196C37.6669 11.9196 38.9066 10.2229 38.9066 8.55251Z" fill="#94A3B8"/>
<path d="M57.9644 15.1683H54.0086V13.7346H53.9593C53.2918 15.0236 51.6477 15.622 50.099 15.622C45.9065 15.622 43.4502 12.324 43.4502 8.52607C43.4502 4.17905 46.5707 1.45312 50.099 1.45312C52.2659 1.45312 53.4825 2.50535 53.9593 3.31754H54.0086V1.91019H57.9644V15.1683ZM50.6974 11.9195C53.1767 11.9195 54.0086 9.81834 54.0086 8.52607C54.0086 6.92471 52.9137 5.15894 50.6744 5.15894C48.4351 5.15894 47.4092 7.06939 47.4092 8.57539C47.4092 9.81834 48.3135 11.9195 50.6974 11.9195Z" fill="#94A3B8"/>
</svg>
