<svg width="120" height="99" viewBox="0 0 120 99" fill="none" xmlns="http://www.w3.org/2000/svg">
<g clip-path="url(#clip0_694_413)">
<path d="M25.4507 28.3107H17.7062V25.4H17.6069C15.9295 28.9011 12.5764 29.1973 10.5035 29.1973C8.82602 29.1973 4.88068 28.8018 2.46291 25.7449C0.296127 23.0346 0 21.061 0 17.3125V0.937012H8.18682V16.0792C8.18682 17.9535 8.18682 21.5539 12.5764 21.5539C14.9436 21.5539 17.262 20.3207 17.262 15.9799V0.937012H25.4489V28.3107H25.4507Z" fill="#94A3B8"/>
<path d="M55.636 19.7286C54.3052 22.7873 52.3804 25.1545 50.062 26.7327C47.7923 28.3596 45.0802 29.1992 42.2688 29.1992C34.4268 29.1992 27.7676 22.8361 27.7676 14.698C27.7676 7.05288 33.7858 0 42.1207 0C50.4556 0 56.5731 6.60869 56.5731 14.9454C56.5731 16.0306 56.4738 16.4748 56.3763 17.1158H35.8569C36.3498 20.3714 39.0637 22.2944 42.2688 22.2944C44.784 22.2944 46.1166 21.1604 47.2506 19.7304H55.636V19.7286ZM48.3863 11.5905C48.0414 9.96359 46.4127 6.90481 42.1713 6.90481C37.9298 6.90481 36.3011 9.96359 35.9562 11.5905H48.3863Z" fill="#94A3B8"/>
<path d="M58.9893 0.937133H66.6831V3.94535H66.8312C68.4581 1.87427 71.172 0 75.3647 0C85.0809 0 88.732 8.53351 88.732 14.8948C88.732 22.7873 83.2085 29.2479 75.4153 29.2479C70.4822 29.2479 68.1656 26.8807 67.1779 25.8443V37.1621L58.9911 37.4348V0.937133H58.9893ZM80.5433 14.6493C80.5433 11.3937 78.1761 7.64513 73.6873 7.64513C69.1984 7.64513 66.8312 11.3937 66.8312 14.6493C66.8312 18.1017 69.3952 21.6046 73.6873 21.6046C77.9793 21.6046 80.5433 18.1035 80.5433 14.6493Z" fill="#94A3B8"/>
<path d="M120 28.3107H111.813V25.3512H111.714C110.332 28.0145 106.929 29.2478 103.724 29.2478C95.0422 29.2478 89.9629 22.4405 89.9629 14.5985C89.9629 5.62085 96.4235 -0.00195312 103.724 -0.00195312C108.213 -0.00195312 110.728 2.16844 111.714 3.84589H111.813V0.936986L120 0.904484V28.3125V28.3107ZM104.957 21.6027C110.087 21.6027 111.813 17.2619 111.813 14.5985C111.813 11.2942 109.543 7.64318 104.908 7.64318C100.273 7.64318 98.1515 11.5885 98.1515 14.6961C98.1515 17.2601 100.026 21.6009 104.959 21.6009L104.957 21.6027Z" fill="#94A3B8"/>
<path d="M49.5087 68.5913C49.2957 70.3012 48.3784 72.6233 44.9585 72.6233H40.8651L41.8419 64.5611H45.9354C49.3553 64.5611 49.7218 66.8813 49.5087 68.5931V68.5913ZM56.8686 76.686C56.5327 79.5263 56.7151 81.787 59.7089 81.787C61.3267 81.787 62.4571 81.2381 63.0999 80.9004L64.1381 72.4716C63.5585 72.1358 62.5799 71.5869 60.962 71.5869C57.9682 71.5869 57.2351 73.8475 56.8686 76.6878V76.686ZM94.2853 58.9852V93.8235C94.2853 96.6204 92.0192 98.8865 89.2223 98.8865H30.7769C27.98 98.8865 25.7139 96.6204 25.7139 93.8235V58.9852C25.7139 56.1883 27.9818 53.9222 30.7769 53.9222H89.2204C92.0174 53.9222 94.2835 56.1901 94.2835 58.9852H94.2853ZM53.2356 68.5913C53.6942 64.8337 52.0746 61.4138 46.1809 61.4138H38.8211L36.0115 84.3203H39.4314L40.4697 75.7381H44.4096C50.305 75.7381 52.7788 72.3489 53.2356 68.5913ZM67.986 69.0499H65.9709L65.2685 70.2724C64.046 69.2955 62.551 68.6834 60.5034 68.6834C56.0452 68.6834 54.0283 71.6772 53.418 76.686C52.8077 81.6949 54.0897 84.6887 58.5496 84.6887C60.5954 84.6887 62.2151 84.0784 63.6813 83.0997L64.1092 84.3221H66.1244L67.9878 69.0517L67.986 69.0499ZM83.9895 69.0499H80.5696L79.1034 80.9004C78.2168 81.3591 77.0883 81.787 75.4993 81.787C73.9103 81.787 73.179 81.0846 73.3614 79.5263L74.6434 69.0499H71.2235L69.9108 79.8315C69.5443 82.7639 70.6746 84.6869 74.5531 84.6869C75.8965 84.6869 77.332 84.351 78.7675 83.6486L78.4931 85.8172C78.28 87.8016 77.4241 89.4213 74.0331 89.4213C72.4748 89.4213 70.8877 89.1161 69.3294 88.5347L68.9321 91.5592C70.2755 92.0485 72.0469 92.323 73.6666 92.323C80.0495 92.323 81.5157 89.1468 81.9744 85.3893L83.9895 69.0499ZM45.0145 50.4896H78.8379L77.3212 44.0886C76.9998 42.7326 75.6167 41.9182 74.2751 42.2938L45.0145 50.4896Z" fill="#94A3B8"/>
</g>
<defs>
<clipPath id="clip0_694_413">
<rect width="120" height="98.8865" fill="white"/>
</clipPath>
</defs>
</svg>
