<svg width="120" height="75" viewBox="0 0 120 75" fill="none" xmlns="http://www.w3.org/2000/svg">
<g clip-path="url(#clip0_694_114)">
<path d="M3.88645 74.2264V47.741H0V42.0312H14.2503V47.741H10.3639V74.2264H3.88645Z" fill="#94A3B8"/>
<path d="M22.3591 42.0312H15.9297V74.2264H22.3591V42.0312Z" fill="#94A3B8"/>
<path d="M40.496 59.9759V68.4685C40.496 72.4509 38.5288 74.4661 34.4984 74.4661H30.564C26.5816 74.4661 24.5664 72.4989 24.5664 68.4685V47.7408C24.5664 43.7584 26.5336 41.7432 30.564 41.7432H34.4025C38.3849 41.7432 40.4001 43.7104 40.4001 47.7408V55.2737H34.0666V48.4125C34.0666 47.6448 33.6828 47.261 32.9151 47.261H32.1954C31.4277 47.261 31.0438 47.6448 31.0438 48.4125V67.7967C31.0438 68.5644 31.4277 68.9483 32.1954 68.9483H33.011C33.7787 68.9483 34.1626 68.5644 34.1626 67.7967V59.9759H40.496Z" fill="#94A3B8"/>
<path d="M52.3954 74.2264L49.0847 58.9685V74.2264H42.6553V42.0312H49.0847V57.1452L52.6833 42.0312H59.3526L55.1303 57.8169L59.1607 74.2264H52.3954Z" fill="#94A3B8"/>
<path d="M72.3554 42.0312V47.741H66.8376V54.9861H72.1635V60.7438H66.8376V68.4687H72.4514V74.2264H60.4082V42.0312H72.3554Z" fill="#94A3B8"/>
<path d="M77.7292 74.2264V47.741H73.8428V42.0312H88.0931V47.741H84.2066V74.2264H77.7292Z" fill="#94A3B8"/>
<path d="M104.838 62.5668V68.5165C104.838 72.4989 102.871 74.5141 98.8404 74.5141H95.2419C91.2595 74.5141 89.2443 72.5468 89.2443 68.5165V61.6552H95.5298V67.8927C95.5298 68.6604 95.9136 69.0442 96.6813 69.0442H97.2571C98.0248 69.0442 98.4086 68.6604 98.4086 67.8927V64.0542C98.4086 63.0466 98.0727 62.5189 97.305 61.9911L91.7873 57.9127C89.82 56.4733 89.1963 55.1778 89.1963 52.8747V47.7408C89.1963 43.7584 91.1635 41.7432 95.1939 41.7432H98.6965C102.679 41.7432 104.694 43.7104 104.694 47.7408V53.6424H98.4086V48.3645C98.4086 47.5968 98.0248 47.213 97.2571 47.213H96.7293C95.9616 47.213 95.5777 47.5968 95.5777 48.3645V51.3873C95.5777 52.3949 95.9136 52.9227 96.6813 53.4505L102.199 57.5288C104.262 58.9203 104.838 60.1678 104.838 62.5668Z" fill="#94A3B8"/>
<path d="M112.803 58.0566C112.803 54.0742 116.018 50.8595 120 50.8595V43.3745H108.245V72.7388H120V65.2538C116.018 65.2538 112.803 62.039 112.803 58.0566Z" fill="#94A3B8"/>
<path d="M25.4298 28.3085H17.7049V25.3817H17.609C15.9296 28.8843 12.571 29.1722 10.5078 29.1722C8.82847 29.1722 4.89404 28.7883 2.44702 25.7176C0.287885 23.0306 0 21.0634 0 17.3209V0.959473H8.20472V16.1214C8.20472 17.9927 8.20472 21.5912 12.571 21.5912C14.922 21.5912 17.2731 20.3437 17.2731 16.0254V0.959473H25.4298V28.3085Z" fill="#94A3B8"/>
<path d="M55.6573 19.7201C54.3138 22.7909 52.3946 25.1419 50.0915 26.7253C47.8364 28.3567 45.1015 29.1723 42.3186 29.1723C34.4977 29.1723 27.8284 22.7909 27.8284 14.6821C27.7804 7.05318 33.778 0 42.1267 0C50.4754 0 56.5689 6.62135 56.5689 14.97C56.5689 16.0736 56.473 16.5054 56.377 17.1291H35.8412C36.321 20.3918 39.0559 22.3111 42.2706 22.3111C44.7656 22.3111 46.1091 21.1595 47.2606 19.7681H55.6573V19.7201ZM48.4122 11.6114C48.0763 9.98001 46.445 6.90924 42.1747 6.90924C37.9524 6.90924 36.321 9.98001 35.9372 11.6114H48.4122Z" fill="#94A3B8"/>
<path d="M59.0166 0.959487H66.6935V3.98228H66.7415H66.8375C68.4688 1.9191 71.1557 0.0478516 75.3781 0.0478516C85.1182 0.0478516 88.7647 8.58843 88.7647 14.9219C88.7647 22.7908 83.2469 29.2682 75.426 29.2682C70.484 29.2682 68.1809 26.9171 67.1733 25.8615V37.4249H59.0166V0.959487ZM80.56 14.634C80.56 11.3713 78.2089 7.62882 73.6987 7.62882C69.1885 7.62882 66.8375 11.3713 66.8375 14.634C66.8375 18.0886 69.3805 21.5912 73.6987 21.5912C78.017 21.5912 80.56 18.0886 80.56 14.634Z" fill="#94A3B8"/>
<path d="M120 28.3087H111.795V25.3339H111.699C110.308 28.0208 106.901 29.2203 103.687 29.2203C95.002 29.2203 89.916 22.407 89.916 14.5862C89.964 5.61375 96.4414 0 103.734 0C108.245 0 110.74 2.15914 111.747 3.83846H111.843V0.959616H120.048V28.3087H120ZM104.982 21.5914C110.116 21.5914 111.843 17.2731 111.843 14.5862C111.843 11.2755 109.588 7.62895 104.934 7.62895C100.232 7.62895 98.1687 11.5634 98.1687 14.6821C98.1687 17.2731 100.04 21.5914 104.982 21.5914Z" fill="#94A3B8"/>
</g>
<defs>
<clipPath id="clip0_694_114">
<rect width="120" height="74.4662" fill="white"/>
</clipPath>
</defs>
</svg>
