<svg width="120" height="35" viewBox="0 0 120 35" fill="none" xmlns="http://www.w3.org/2000/svg">
<path d="M15.269 28.751H10.6319V27.0089H10.5807C9.58155 29.1096 7.55764 29.289 6.32792 29.289C5.32878 29.289 2.9462 29.0584 1.51153 27.2138C0.179334 25.5742 0 24.3957 0 22.1412V12.3291H4.91887V21.4239C4.91887 22.5511 4.91887 24.7031 7.55764 24.7031C8.96669 24.7031 10.3757 23.9602 10.3757 21.347V12.3291H15.2946V28.751H15.269Z" fill="#94A3B8"/>
<path d="M33.3814 23.6012C32.5872 25.4458 31.4343 26.8548 30.0253 27.8027C28.6675 28.7762 27.0278 29.2886 25.337 29.2886C20.623 29.2886 16.6265 25.4714 16.6265 20.5781C16.6265 15.9923 20.2388 11.7651 25.2345 11.7651C30.2302 11.7651 33.9194 15.7361 33.9194 20.7318C33.9194 21.3723 33.8681 21.6541 33.7913 22.0384H21.5197C21.8271 23.9855 23.4412 25.1383 25.3626 25.1383C26.8741 25.1383 27.6683 24.4466 28.36 23.6012H33.3814ZM29.0261 18.7079C28.8212 17.7344 27.8476 15.8898 25.2857 15.8898C22.7238 15.8898 21.7759 17.7344 21.571 18.7079H29.0261Z" fill="#94A3B8"/>
<path d="M35.4055 12.3288H40.0169V14.1221H40.0426H40.0938C41.0673 12.8668 42.707 11.7651 45.2176 11.7651C51.0588 11.7651 53.2364 16.889 53.2364 20.7062C53.2364 25.4458 49.9315 29.3142 45.2432 29.3142C42.2714 29.3142 40.888 27.9052 40.2988 27.2647V34.0538L35.3799 34.2075V12.3288H35.4055ZM48.3432 20.5525C48.3432 18.6054 46.9341 16.351 44.2185 16.351C41.5285 16.351 40.0938 18.6054 40.0938 20.5525C40.0938 22.6276 41.631 24.7284 44.2185 24.7284C46.7804 24.7284 48.3432 22.6276 48.3432 20.5525Z" fill="#94A3B8"/>
<path d="M72.0156 28.7506H67.0967V26.9829H67.0455C66.2257 28.5713 64.1762 29.3142 62.2547 29.3142C57.054 29.3142 54.0054 25.2408 54.0054 20.5269C54.0054 15.1469 57.8739 11.7651 62.2547 11.7651C64.9447 11.7651 66.4563 13.0717 67.0455 14.0709H67.0967V12.3288L72.0156 12.3031V28.7506ZM62.9721 24.7284C66.0464 24.7284 67.0967 22.1153 67.0967 20.5269C67.0967 18.5542 65.7389 16.351 62.9464 16.351C60.1283 16.351 58.8986 18.7079 58.8986 20.5781C58.8986 22.1153 60.0259 24.7284 62.9721 24.7284Z" fill="#94A3B8"/>
<path d="M93.1256 15.8387C92.9975 16.8634 92.4594 18.2469 90.3843 18.2469H87.9249L88.5141 13.4049H90.9735C93.0231 13.4305 93.2536 14.8139 93.1256 15.8387ZM97.532 20.7063C97.3271 22.4228 97.4296 23.755 99.2485 23.755C100.222 23.755 100.888 23.4219 101.272 23.217L101.887 18.17C101.529 17.9651 100.965 17.632 99.9915 17.632C98.1981 17.632 97.7626 18.9898 97.532 20.7063ZM120 10.0744V30.9796C120 32.6704 118.642 34.0283 116.951 34.0283H81.8788C80.1879 34.0283 78.8301 32.6704 78.8301 30.9796V10.0744C78.8301 8.38351 80.1879 7.0257 81.8788 7.0257H116.951C118.642 7.05131 120 8.40913 120 10.0744ZM95.3544 15.8387C95.6362 13.5842 94.6627 11.5347 91.1273 11.5347H86.7208L85.0299 25.2921H87.0794L87.6943 20.1427H90.0513C93.6123 20.1427 95.0982 18.0932 95.3544 15.8387ZM104.219 16.1205H103.015L102.605 16.8634C101.862 16.2742 100.965 15.9155 99.7353 15.9155C97.0709 15.9155 95.8412 17.7089 95.4825 20.7063C95.1238 23.7037 95.8924 25.4971 98.5568 25.4971C99.7865 25.4971 100.76 25.1384 101.631 24.5492L101.887 25.2921H103.091L104.219 16.1205ZM113.826 16.1205H111.776L110.905 23.2426C110.367 23.5244 109.701 23.7806 108.753 23.7806C107.78 23.7806 107.37 23.3707 107.472 22.4228L108.241 16.1461H106.191L105.397 22.6277C105.167 24.3955 105.858 25.5483 108.19 25.5483C108.984 25.5483 109.855 25.3434 110.726 24.9335L110.572 26.24C110.444 27.4441 109.932 28.392 107.908 28.392C106.986 28.392 106.012 28.2127 105.09 27.854L104.859 29.673C105.653 29.9548 106.729 30.1341 107.703 30.1341C111.546 30.1341 112.417 28.2383 112.699 25.9838L113.826 16.1205ZM90.4355 4.97617H110.726L109.804 1.1333C109.599 0.313484 108.779 -0.17328 107.985 0.0572924L90.4355 4.97617Z" fill="#94A3B8"/>
</svg>
