<svg width="120" height="46" viewBox="0 0 120 46" fill="none" xmlns="http://www.w3.org/2000/svg">
<path d="M81.9257 26.0758L83.1255 26.4358C83.0455 26.7757 82.9255 27.0557 82.7455 27.2756C82.5655 27.4956 82.3656 27.6756 82.1056 27.7755C81.8457 27.8955 81.5257 27.9555 81.1258 27.9555C80.6459 27.9555 80.2659 27.8955 79.946 27.7555C79.646 27.6156 79.3861 27.3756 79.1661 27.0157C78.9462 26.6757 78.8262 26.2158 78.8262 25.6759C78.8262 24.956 79.0261 24.3961 79.4061 23.9962C79.786 23.5962 80.3459 23.4163 81.0458 23.4163C81.6057 23.4163 82.0256 23.5362 82.3456 23.7562C82.6655 23.9762 82.9055 24.3161 83.0455 24.796L81.8457 25.056C81.8057 24.916 81.7657 24.816 81.7057 24.756C81.6257 24.6561 81.5457 24.5761 81.4257 24.5161C81.3058 24.4561 81.1858 24.4361 81.0658 24.4361C80.7659 24.4361 80.5259 24.5561 80.3659 24.816C80.2459 24.996 80.1859 25.2959 80.1859 25.6759C80.1859 26.1558 80.2659 26.4957 80.4059 26.6757C80.5459 26.8557 80.7658 26.9557 81.0258 26.9557C81.2858 26.9557 81.4857 26.8757 81.6057 26.7357C81.7657 26.5557 81.8657 26.3558 81.9257 26.0758Z" fill="#94A3B8"/>
<path d="M83.6055 25.6759C83.6055 24.956 83.8054 24.3961 84.2054 23.9961C84.6053 23.5962 85.1652 23.3962 85.8851 23.3962C86.625 23.3962 87.1849 23.5962 87.5848 23.9761C87.9847 24.3761 88.1847 24.916 88.1847 25.6359C88.1847 26.1558 88.1047 26.5757 87.9247 26.8957C87.7448 27.2156 87.5048 27.4756 87.1649 27.6555C86.8449 27.8355 86.425 27.9355 85.9451 27.9355C85.4452 27.9355 85.0452 27.8555 84.7053 27.6955C84.3853 27.5355 84.1254 27.2956 83.9054 26.9357C83.6855 26.5757 83.6055 26.1958 83.6055 25.6759ZM84.9652 25.6759C84.9652 26.1158 85.0452 26.4357 85.2052 26.6357C85.3652 26.8357 85.5851 26.9357 85.8851 26.9357C86.185 26.9357 86.405 26.8357 86.565 26.6557C86.725 26.4557 86.8049 26.1158 86.8049 25.6359C86.8049 25.2159 86.725 24.916 86.545 24.736C86.385 24.5361 86.145 24.4561 85.8651 24.4561C85.5851 24.4561 85.3652 24.5561 85.2052 24.756C85.0452 24.916 84.9652 25.2359 84.9652 25.6759Z" fill="#94A3B8"/>
<path d="M88.8847 23.4763H90.6644L91.3443 26.1559L92.0242 23.4763H93.8039V27.8756H92.6841V24.5161L91.8242 27.8756H90.8244L89.9645 24.5161V27.8756H88.8447V23.4763H88.8847Z" fill="#94A3B8"/>
<path d="M94.6836 23.4763H96.9432C97.4431 23.4763 97.8031 23.5963 98.043 23.8363C98.283 24.0762 98.403 24.3962 98.403 24.8361C98.403 25.276 98.263 25.636 98.003 25.8759C97.7431 26.1359 97.3232 26.2559 96.7832 26.2559H96.0434V27.8956H94.6836V23.4763ZM96.0434 25.356H96.3833C96.6433 25.356 96.8232 25.316 96.9432 25.216C97.0432 25.116 97.1032 25.0161 97.1032 24.8761C97.1032 24.7361 97.0632 24.6161 96.9632 24.5161C96.8632 24.4162 96.7033 24.3762 96.4433 24.3762H96.0634V25.356H96.0434Z" fill="#94A3B8"/>
<path d="M99.123 23.4763H100.483V26.7958H102.602V27.8756H99.123V23.4763Z" fill="#94A3B8"/>
<path d="M103.282 23.4763H104.642V27.8756H103.282V23.4763Z" fill="#94A3B8"/>
<path d="M108.321 27.1357H106.781L106.561 27.8556H105.182L106.841 23.4563H108.321L109.981 27.8556H108.561L108.321 27.1357ZM108.041 26.1958L107.561 24.6161L107.081 26.1958H108.041Z" fill="#94A3B8"/>
<path d="M110.401 23.4763H111.661L113.321 25.9159V23.4763H114.601V27.8756H113.321L111.681 25.456V27.8756H110.401V23.4763Z" fill="#94A3B8"/>
<path d="M115.2 23.4763H119.339V24.5561H117.96V27.8756H116.6V24.5561H115.22V23.4763H115.2Z" fill="#94A3B8"/>
<path d="M65.5691 30.175L69.5084 28.9352L68.2286 26.0956C67.2888 27.2754 66.3489 28.7952 65.5691 30.175ZM64.2293 17.1971L56.5106 0L0 3.19947L15.6574 45.9123L45.7924 36.4139C43.8727 33.6544 43.1728 30.3749 45.3924 28.7752C47.872 26.9755 51.6114 29.0552 53.991 31.9947C56.2906 28.1553 62.7495 19.2168 64.2293 17.1971Z" fill="#94A3B8"/>
<path d="M54.75 12.428C57.1096 12.428 59.0293 10.6283 59.0293 8.38869C59.0293 6.14906 57.1096 4.34937 54.75 4.34937C52.3904 4.34937 50.4707 6.14906 50.4707 8.38869C50.4707 10.6083 52.3904 12.428 54.75 12.428ZM51.2506 14.1677H58.2494V32.4647H51.2506V14.1677Z" fill="#FEFEFE"/>
<path d="M47.7905 19.5068C47.8505 19.5268 47.8905 19.5068 47.8905 19.4468V14.8076C47.8905 14.7476 47.8505 14.6876 47.7905 14.6476C47.7905 14.6476 46.8706 14.0477 44.0711 13.8878C43.9311 13.8078 41.4715 13.7878 40.8116 13.8878C30.6133 14.7076 30.2334 22.0864 30.2334 22.4063V24.206C30.2334 24.426 30.2334 31.9648 40.8116 32.6246C41.8515 32.7046 43.8711 32.6246 44.0711 32.6246C46.5107 32.6246 48.1904 31.8848 48.1904 31.8848C48.2504 31.8648 48.2904 31.8048 48.2904 31.7448V27.4055C48.2904 27.3455 48.2504 27.3255 48.2104 27.3655C48.2104 27.3655 47.4505 27.9654 44.1311 28.3054C43.1912 28.4053 42.7313 28.3654 42.3914 28.3054C37.6722 27.5055 37.4522 24.0661 37.4522 24.0661C37.4522 24.0061 37.4322 23.9061 37.4322 23.8661V22.5463C37.4322 22.4863 37.4322 22.3863 37.4522 22.3464C37.4522 22.3464 37.7721 18.647 42.3914 18.247H44.1311C46.1507 18.507 47.7905 19.5068 47.7905 19.5068Z" fill="#FEFEFE"/>
<path d="M10.7969 32.4047C10.7969 32.4647 10.8369 32.5047 10.8969 32.5047H17.7157C17.7757 32.5047 17.8157 32.4647 17.8157 32.4047V27.0856C17.8157 27.0256 17.8557 26.9856 17.9157 26.9856C17.9157 26.9856 28.8139 27.7654 28.8139 20.4667C28.8139 14.6876 21.975 14.0677 19.7354 14.1677C19.6954 14.1677 10.8969 14.1677 10.8969 14.1677C10.8369 14.1677 10.7969 14.2077 10.7969 14.2677V32.4047ZM17.6957 22.9263V18.1471H19.3754C19.3754 18.1471 21.795 18.247 21.995 19.9068C22.035 20.0267 22.035 20.8466 21.995 20.8866C21.6751 22.8263 19.5754 22.9263 19.5754 22.9263H17.6957Z" fill="#FEFEFE"/>
<path d="M54.9509 41.2931C55.5108 41.2931 55.9507 41.2931 56.6706 40.9732C59.1502 39.6734 67.5288 19.2168 76.3673 12.9178C76.4273 12.8778 76.4873 12.8179 76.5273 12.7579C76.5872 12.6779 76.5872 12.5979 76.5872 12.5979C76.5872 12.5979 76.5872 12.178 75.2875 12.178C67.4288 11.958 59.2501 28.4552 54.9509 34.9742C54.8909 35.0541 54.6109 34.9742 54.6109 34.9742C54.6109 34.9742 51.7314 31.5747 49.2318 30.2749C49.1718 30.2549 48.8919 30.155 48.5919 30.175C48.3919 30.175 47.2321 30.4149 46.6922 30.9748C46.0523 31.6547 46.0723 32.0346 46.0723 32.8545C46.0723 32.9145 46.1123 33.1945 46.1923 33.3344C46.8122 34.4142 49.5917 38.2536 51.8914 40.3733C52.2313 40.6332 52.7712 41.2931 54.9509 41.2931Z" fill="#94A3B8"/>
<path d="M78.6875 6.73877H85.2264C86.5262 6.73877 87.566 6.91874 88.3459 7.25868C89.1458 7.61862 89.8056 8.11854 90.3056 8.75843C90.8255 9.41832 91.2054 10.1782 91.4254 11.0381C91.6653 11.8979 91.7853 12.8178 91.7853 13.7976C91.7853 15.3173 91.6054 16.4971 91.2654 17.337C90.9255 18.1769 90.4455 18.8767 89.8256 19.4566C89.2057 20.0166 88.5459 20.3965 87.846 20.5965C86.8861 20.8564 86.0063 20.9764 85.2264 20.9764H78.6875V6.73877ZM83.0868 9.95823V17.7369H84.1666C85.0864 17.7369 85.7463 17.637 86.1263 17.437C86.5062 17.237 86.8261 16.8771 87.0461 16.3772C87.2661 15.8772 87.3861 15.0374 87.3861 13.8976C87.3861 12.3778 87.1461 11.358 86.6462 10.7981C86.1463 10.2382 85.3464 9.95823 84.1866 9.95823H83.0868Z" fill="#94A3B8"/>
<path d="M93.0049 16.2771L97.2042 16.0172C97.3042 16.6971 97.4841 17.217 97.7641 17.5769C98.224 18.1568 98.8639 18.4368 99.7038 18.4368C100.324 18.4368 100.824 18.2968 101.164 17.9968C101.503 17.6969 101.683 17.3569 101.683 16.977C101.683 16.6171 101.523 16.2771 101.204 15.9772C100.884 15.6772 100.124 15.4173 98.9439 15.1573C97.0042 14.7174 95.6444 14.1375 94.8046 13.4176C93.9647 12.6977 93.5648 11.7779 93.5648 10.6581C93.5648 9.91819 93.7848 9.2383 94.2047 8.57841C94.6246 7.91852 95.2645 7.4186 96.1244 7.03867C96.9842 6.65873 98.144 6.47876 99.6238 6.47876C101.443 6.47876 102.843 6.8187 103.783 7.49859C104.743 8.17848 105.303 9.2583 105.483 10.7381L101.323 10.978C101.204 10.3381 100.984 9.8782 100.624 9.57825C100.264 9.2783 99.7838 9.13832 99.1639 9.13832C98.6439 9.13832 98.264 9.2383 98.004 9.45826C97.7441 9.67823 97.6241 9.93818 97.6241 10.2581C97.6241 10.4781 97.7241 10.6981 97.9441 10.878C98.144 11.058 98.6439 11.238 99.4238 11.3979C101.343 11.8179 102.723 12.2378 103.563 12.6577C104.403 13.0777 105.003 13.6176 105.383 14.2375C105.763 14.8574 105.943 15.5772 105.943 16.3571C105.943 17.277 105.683 18.1168 105.183 18.8767C104.683 19.6566 103.963 20.2365 103.063 20.6364C102.163 21.0363 101.004 21.2363 99.6238 21.2363C97.2042 21.2363 95.5245 20.7764 94.5846 19.8365C93.6648 18.8967 93.1449 17.7169 93.0049 16.2771Z" fill="#94A3B8"/>
<path d="M107.062 16.2771L111.261 16.0172C111.361 16.6971 111.541 17.217 111.821 17.5769C112.281 18.1568 112.921 18.4368 113.76 18.4368C114.38 18.4368 114.88 18.2968 115.22 17.9968C115.56 17.6969 115.74 17.3569 115.74 16.977C115.74 16.6171 115.58 16.2771 115.26 15.9772C114.94 15.6772 114.18 15.4173 113.001 15.1573C111.061 14.7174 109.701 14.1375 108.861 13.4176C108.041 12.6977 107.621 11.7779 107.621 10.6581C107.621 9.91819 107.841 9.2383 108.261 8.57841C108.681 7.91852 109.321 7.4186 110.181 7.03867C111.041 6.65873 112.201 6.47876 113.68 6.47876C115.5 6.47876 116.9 6.8187 117.84 7.49859C118.8 8.17848 119.359 9.2583 119.539 10.7381L115.38 10.978C115.26 10.3381 115.04 9.8782 114.68 9.57825C114.32 9.2783 113.84 9.13832 113.22 9.13832C112.701 9.13832 112.321 9.2383 112.061 9.45826C111.801 9.67823 111.681 9.93818 111.681 10.2581C111.681 10.4781 111.781 10.6981 112.001 10.878C112.201 11.058 112.701 11.238 113.48 11.3979C115.4 11.8179 116.78 12.2378 117.62 12.6577C118.46 13.0777 119.06 13.6176 119.439 14.2375C119.819 14.8574 119.999 15.5772 119.999 16.3571C119.999 17.277 119.739 18.1168 119.239 18.8767C118.74 19.6566 118.02 20.2365 117.12 20.6364C116.22 21.0363 115.06 21.2363 113.68 21.2363C111.261 21.2363 109.581 20.7764 108.641 19.8365C107.701 18.8967 107.182 17.7169 107.062 16.2771Z" fill="#94A3B8"/>
</svg>
