<svg width="120" height="24" viewBox="0 0 120 24" fill="none" xmlns="http://www.w3.org/2000/svg">
<path d="M11.6757 23.3995C11.1762 23.3995 10.6752 23.3951 10.1757 23.4024C10.0169 23.4038 9.89603 23.3572 9.78535 23.2451C6.57697 20.0323 3.3686 16.824 0.15731 13.617C0.0437137 13.5034 0.00147911 13.3797 0.00147911 13.2238C0.00439184 12.2306 0.00730457 11.2373 2.27393e-05 10.2456C-0.00143363 10.03 0.0670156 9.8669 0.219934 9.71544C2.56323 7.3838 4.90215 5.04924 7.24253 2.71323C8.07266 1.88456 8.90424 1.05734 9.73 0.224302C9.88001 0.0713833 10.0431 -0.00143495 10.2601 2.14117e-05C11.233 0.00730324 12.2058 0.00584688 13.1787 2.14117e-05C13.3709 2.14117e-05 13.5209 0.0568197 13.6578 0.195174C16.8225 3.36423 19.9901 6.53037 23.1592 9.69505C23.3252 9.86108 23.4067 10.0373 23.4053 10.2776C23.3965 11.2577 23.398 12.2364 23.4053 13.2165C23.4053 13.3899 23.3558 13.5195 23.2334 13.6418C20.0556 16.8152 16.8778 19.9916 13.7044 23.1693C13.5428 23.331 13.368 23.4067 13.1364 23.4009C12.65 23.3893 12.1636 23.398 11.6772 23.398L11.6757 23.3995ZM11.7369 17.5623C11.7733 17.5288 11.8141 17.4953 11.8505 17.4589C13.7306 15.5788 15.6094 13.6986 17.4924 11.8213C17.59 11.7238 17.5958 11.6757 17.4953 11.5752C15.6123 9.69942 13.7321 7.81925 11.8563 5.93471C11.7383 5.81675 11.6772 5.83714 11.5723 5.94199C9.69942 7.81925 7.82508 9.69505 5.94637 11.5665C5.84588 11.6655 5.84733 11.7194 5.94637 11.8155C6.38473 12.2437 6.81582 12.6806 7.24981 13.1131C8.69162 14.5549 10.1334 15.9967 11.5767 17.4371C11.6218 17.4822 11.6568 17.5449 11.7383 17.5594L11.7369 17.5623ZM11 22.6218C11.0116 22.6421 11.0218 22.6625 11.0335 22.6829C11.6378 22.6829 12.2422 22.6756 12.8466 22.6858C13.1 22.6902 13.2908 22.5999 13.4656 22.4237C16.4235 19.4629 19.3813 16.5036 22.345 13.5471C22.479 13.4146 22.4907 13.3447 22.3494 13.2049C20.3411 11.2068 18.34 9.2028 16.3375 7.2003C15.3851 6.24783 14.4326 5.29828 13.4845 4.3429C13.3782 4.23513 13.3141 4.2162 13.202 4.33708C12.9384 4.61961 12.666 4.89487 12.382 5.15701C12.2466 5.28226 12.2553 5.35071 12.382 5.47887C14.8229 7.911 17.258 10.3475 19.6945 12.784C19.8634 12.9529 20.0309 13.1262 20.2042 13.2908C20.2785 13.3622 20.2872 13.4102 20.2071 13.4831C20.0644 13.6127 19.9275 13.7496 19.7906 13.8865C16.9128 16.7584 14.0365 19.6289 11.1572 22.4994C11.1106 22.546 11.0509 22.581 10.9985 22.6203L11 22.6218ZM22.5926 12.3937C22.6203 12.3748 22.6465 12.3544 22.6742 12.3354C22.6742 11.7369 22.6713 11.1398 22.6756 10.5412C22.6771 10.3213 22.6043 10.1494 22.4455 9.99069C21.33 8.8824 20.2231 7.76537 19.1105 6.65416C17.2725 4.81622 15.4331 2.9812 13.5937 1.14473C13.4355 0.986467 13.2758 0.988408 13.1146 1.15055C11.6582 2.60692 10.2019 4.06183 8.7455 5.51819C7.2702 6.99349 5.79636 8.46879 4.31815 9.93972C4.20455 10.0519 4.20746 10.113 4.3196 10.2193C4.59631 10.48 4.86429 10.7495 5.12497 11.0247C5.22983 11.1339 5.29246 11.1485 5.40751 11.0305C5.9551 10.4757 6.51435 9.93244 7.06631 9.38193C9.10959 7.34447 11.1529 5.30702 13.1889 3.26374C13.3374 3.11519 13.4059 3.13266 13.5413 3.26956C16.5108 6.24638 19.4862 9.21882 22.4572 12.1942C22.5125 12.2495 22.546 12.3267 22.5897 12.3937H22.5926ZM12.3544 0.726748C11.7092 0.726748 11.083 0.726748 10.4567 0.726748C10.2922 0.726748 10.1698 0.805392 10.0562 0.918988C8.56491 2.40594 7.06922 3.88852 5.5779 5.37692C4.50748 6.4459 3.44433 7.52215 2.37681 8.59404C1.93408 9.03823 1.49717 9.48679 1.04132 9.91642C0.926272 10.0256 0.924815 10.065 1.03113 10.1698C1.7229 10.8529 2.41031 11.5432 3.09771 12.232C5.37838 14.5127 7.66051 16.7934 9.93972 19.077C10.0489 19.1862 10.1087 19.1964 10.2179 19.0799C10.4786 18.8046 10.748 18.5352 11.0305 18.2803C11.1689 18.1551 11.1587 18.0866 11.0305 17.9585C8.43966 15.3749 5.85461 12.7855 3.26228 10.2033C3.1283 10.0708 3.1181 10.0038 3.25791 9.86399C6.24201 6.89009 9.21882 3.91182 12.1971 0.932096C12.251 0.87821 12.3238 0.835975 12.3544 0.726748ZM0.787917 11.0364C0.767528 11.0495 0.745682 11.0626 0.725293 11.0757C0.725293 11.667 0.729662 12.2583 0.72238 12.8495C0.719468 13.0869 0.803937 13.2704 0.969962 13.4365C3.93512 16.4074 6.90028 19.3799 9.85962 22.3582C9.99943 22.498 10.0664 22.4878 10.2004 22.3538C13.151 19.3959 16.106 16.4424 19.0609 13.4889C19.0799 13.47 19.0974 13.4481 19.1177 13.4335C19.2022 13.3709 19.1935 13.3185 19.1177 13.2471C18.8367 12.9733 18.5541 12.6981 18.2876 12.4112C18.1624 12.2772 18.091 12.283 17.9628 12.4126C15.3924 14.9962 12.816 17.5754 10.2412 20.1547C10.0213 20.3746 10.0824 20.3746 9.86836 20.162C6.89009 17.1851 3.91182 14.2069 0.93501 11.2286C0.879668 11.1733 0.837433 11.1019 0.789373 11.0393L0.787917 11.0364Z" fill="#94A3B8"/>
<path d="M33.231 4.07769V4.29614C33.231 6.46176 33.2281 8.62883 33.2353 10.7944C33.2353 10.975 33.1946 11.0318 33.0067 11.0275C32.4402 11.0144 31.8736 11.0187 31.3071 11.026C31.176 11.0275 31.1367 10.9911 31.1367 10.8585C31.1396 7.70549 31.1396 4.55392 31.1367 1.40089C31.1367 1.2771 31.1629 1.22758 31.3013 1.22904C32.1751 1.23632 33.0475 1.23632 33.9213 1.22904C34.0684 1.22904 34.0931 1.31059 34.1325 1.41108C34.8708 3.31309 35.6107 5.21511 36.352 7.11712C36.3753 7.17683 36.384 7.24383 36.4568 7.30791C36.5733 7.00935 36.6869 6.7239 36.7991 6.437C37.453 4.75781 38.1069 3.08008 38.755 1.39797C38.8045 1.27127 38.8613 1.22904 38.9982 1.22904C39.8574 1.23632 40.7181 1.23632 41.5774 1.22904C41.7274 1.22904 41.7638 1.26544 41.7638 1.41545C41.7595 4.55392 41.7595 7.69384 41.7638 10.8323C41.7638 10.9954 41.7158 11.0289 41.5628 11.0275C40.9963 11.0187 40.4298 11.0187 39.8633 11.0275C39.6987 11.0304 39.6506 10.9881 39.6506 10.8192C39.6565 8.65941 39.655 6.50108 39.655 4.34129C39.655 4.26119 39.655 4.18255 39.655 4.07914C39.5618 4.14614 39.5531 4.23497 39.5239 4.30634C38.6705 6.48506 37.8171 8.66378 36.9695 10.8454C36.9185 10.975 36.8632 11.0391 36.7146 11.0275C36.5355 11.0129 36.3549 11.0144 36.1757 11.0275C36.0345 11.0377 35.9675 10.9881 35.9151 10.8527C35.0558 8.64048 34.1893 6.43117 33.3256 4.22041C33.3067 4.17235 33.2878 4.12429 33.2688 4.07623C33.2557 4.07623 33.2426 4.07914 33.2295 4.07914L33.231 4.07769Z" fill="#94A3B8"/>
<path d="M97.7109 5.59551C98.5308 5.59551 99.3508 5.59988 100.171 5.59114C100.332 5.58968 100.367 5.63774 100.363 5.79066C100.338 6.82177 100.159 7.81501 99.6828 8.74126C99.077 9.92237 98.1303 10.6899 96.8429 11.0117C95.3662 11.3802 93.9375 11.2579 92.6296 10.4379C91.1718 9.52478 90.4189 8.17327 90.3169 6.46059C90.2456 5.25326 90.5092 4.12895 91.2242 3.13862C92.0806 1.95313 93.2719 1.32253 94.6991 1.12592C95.7477 0.981739 96.7715 1.07495 97.7371 1.557C98.4711 1.92401 99.0391 2.47306 99.4979 3.14444C99.559 3.23328 99.5474 3.27115 99.4542 3.32066C98.9619 3.58426 98.4711 3.85369 97.9832 4.12458C97.8944 4.17409 97.8463 4.17846 97.7735 4.08671C96.9259 3.03085 95.8118 2.67549 94.5739 3.05415C93.4117 3.41096 92.5845 4.47265 92.4694 5.73386C92.4097 6.38486 92.4884 7.00964 92.7578 7.60675C93.5078 9.27574 95.4288 9.66168 96.6463 9.12574C97.3424 8.81844 97.7633 8.26648 98.0255 7.57325C98.0837 7.41888 97.992 7.42907 97.8915 7.42907C97.0046 7.42907 96.1191 7.42325 95.2322 7.4349C95.0487 7.43781 95.0108 7.38247 95.0152 7.21062C95.0268 6.73147 95.0239 6.25087 95.0152 5.77173C95.0122 5.63483 95.0487 5.59114 95.1914 5.59259C96.0317 5.59988 96.8706 5.59551 97.7109 5.59551Z" fill="#94A3B8"/>
<path d="M90.1829 22.3188C88.8547 22.3654 87.7027 21.9795 86.7196 21.1391C85.6842 20.2537 85.1569 19.0988 85.0535 17.7545C84.94 16.2923 85.2953 14.9612 86.29 13.85C87.1857 12.848 88.3362 12.347 89.6644 12.2407C90.8586 12.1446 91.9917 12.3572 93.0111 13.0068C94.3597 13.8675 95.0719 15.1272 95.2379 16.703C95.369 17.9482 95.1418 19.1279 94.4325 20.1721C93.483 21.5717 92.1344 22.2664 90.4494 22.3202C90.3489 22.3232 90.2499 22.3202 90.1843 22.3202L90.1829 22.3188ZM87.1798 17.287C87.1813 17.6482 87.2177 18.0065 87.324 18.3516C87.6604 19.4512 88.358 20.2027 89.5042 20.427C90.6839 20.6585 91.7179 20.3585 92.4766 19.3726C92.9893 18.7055 93.1509 17.9235 93.1204 17.0948C93.0621 15.5496 92.0441 13.9287 89.8872 14.0801C89.0454 14.1398 88.3493 14.4879 87.8396 15.1695C87.3721 15.7957 87.1798 16.5123 87.1798 17.2856V17.287Z" fill="#94A3B8"/>
<path d="M106.003 1.06885C107.579 1.08924 108.941 1.60333 109.972 2.83396C110.862 3.89857 111.187 5.1525 111.101 6.52003C111.025 7.7157 110.61 8.77739 109.781 9.65558C108.932 10.5542 107.872 11.0333 106.65 11.1629C105.424 11.2925 104.257 11.1003 103.197 10.4478C101.828 9.60461 101.1 8.34922 100.919 6.76761C100.781 5.54572 100.992 4.38936 101.655 3.34224C102.476 2.04461 103.686 1.34993 105.188 1.12419C105.459 1.08341 105.731 1.07759 106.006 1.0703L106.003 1.06885ZM103.027 6.08748C103.011 7.82056 104.059 9.25071 105.8 9.34101C106.975 9.40217 107.908 8.95798 108.516 7.92688C108.969 7.15937 109.054 6.31613 108.91 5.45251C108.717 4.29179 107.948 3.1165 106.392 2.94319C105.058 2.79318 103.884 3.3466 103.318 4.65733C103.114 5.1292 103.019 5.62145 103.028 6.08748H103.027Z" fill="#94A3B8"/>
<path d="M58.686 17.2738C58.686 15.714 58.6889 14.1542 58.6816 12.5945C58.6816 12.4182 58.7253 12.3731 58.9016 12.3745C60.3477 12.3818 61.7939 12.3775 63.2415 12.3789C64.0542 12.3789 64.8129 12.5624 65.4639 13.0794C66.1208 13.6023 66.4645 14.2999 66.5533 15.1198C66.648 15.9922 66.4819 16.8048 65.9198 17.5068C65.5673 17.9466 65.1144 18.2408 64.577 18.3966C64.4387 18.4359 64.4328 18.4723 64.5027 18.5903C65.1799 19.7205 65.8528 20.8535 66.5242 21.988C66.5533 22.0375 66.6203 22.087 66.5883 22.1438C66.5562 22.2006 66.479 22.1686 66.4222 22.1686C65.7552 22.1701 65.0897 22.1657 64.4226 22.173C64.277 22.1744 64.1984 22.1322 64.1284 22.0026C63.5546 20.9511 62.9721 19.9054 62.3968 18.8554C62.3328 18.7374 62.2643 18.6821 62.1201 18.6864C61.7342 18.6981 61.3468 18.6966 60.9609 18.6864C60.8123 18.6821 60.7686 18.7243 60.7701 18.8758C60.7774 19.9083 60.7701 20.9423 60.7774 21.9749C60.7774 22.1322 60.7366 22.1759 60.5793 22.173C60.0128 22.1628 59.4462 22.1628 58.8797 22.173C58.7166 22.1759 58.6831 22.1235 58.6846 21.9705C58.6904 20.4049 58.6875 18.8379 58.6875 17.2723L58.686 17.2738ZM60.773 15.5392C60.773 15.9324 60.7744 16.3242 60.7715 16.7174C60.7715 16.8135 60.7905 16.8645 60.9026 16.8616C61.6672 16.8485 62.4332 16.8878 63.1978 16.8398C63.744 16.8063 64.2115 16.4495 64.3644 15.9805C64.644 15.1213 64.1343 14.3202 63.2313 14.2387C62.4551 14.1673 61.6745 14.2256 60.8968 14.2096C60.7788 14.2067 60.7715 14.2707 60.773 14.361C60.7759 14.7542 60.773 15.146 60.773 15.5392Z" fill="#94A3B8"/>
<path d="M89.1709 11.0231C88.8374 11.0231 88.5038 11.0173 88.1703 11.026C88.0451 11.0289 87.9839 10.994 87.9402 10.8687C87.7815 10.4172 87.6038 9.97304 87.4436 9.52156C87.4014 9.40214 87.3519 9.35845 87.2222 9.35845C85.929 9.36428 84.6357 9.36428 83.3425 9.35845C83.2085 9.35845 83.1604 9.41088 83.1197 9.52448C82.9609 9.96867 82.792 10.4099 82.6332 10.8541C82.5895 10.9765 82.5342 11.0304 82.3929 11.0274C81.7332 11.0187 81.0735 11.0202 80.4137 11.026C80.2564 11.026 80.2011 11.0129 80.271 10.8338C81.49 7.68363 82.7046 4.53205 83.9163 1.38048C83.9585 1.27271 84.0095 1.22902 84.1304 1.22902C84.8964 1.23484 85.6639 1.23775 86.43 1.22756C86.5814 1.2261 86.6178 1.30038 86.6615 1.41252C87.5441 3.70775 88.4296 6.00298 89.315 8.29822C89.6427 9.14873 89.9646 10.0007 90.301 10.8469C90.368 11.0143 90.3214 11.0304 90.1699 11.026C89.8364 11.0173 89.5029 11.0231 89.1694 11.0231H89.1709ZM86.8072 7.51906C86.3004 6.12095 85.8023 4.74468 85.2853 3.31453C84.7668 4.74468 84.2658 6.12532 83.7605 7.51906H86.8072Z" fill="#94A3B8"/>
<path d="M68.1284 17.2636C68.1284 15.7038 68.1313 14.1455 68.124 12.5857C68.124 12.4197 68.1677 12.3746 68.3337 12.376C70.5066 12.3818 72.6795 12.3818 74.851 12.376C75.033 12.376 75.0723 12.4299 75.068 12.6003C75.0563 13.0736 75.0563 13.5469 75.068 14.0188C75.0723 14.1804 75.0199 14.2169 74.8655 14.2154C73.399 14.2096 71.9324 14.2154 70.4673 14.2081C70.2736 14.2081 70.2023 14.2402 70.2081 14.4557C70.2256 14.9887 70.2212 15.5218 70.2095 16.0548C70.2066 16.2266 70.2445 16.2805 70.428 16.2791C71.8669 16.2703 73.3072 16.2791 74.7461 16.2703C74.9253 16.2703 74.966 16.3155 74.9617 16.4888C74.9486 16.9679 74.95 17.4485 74.9617 17.9277C74.9646 18.0835 74.9151 18.1126 74.7709 18.1126C73.3247 18.1068 71.8785 18.1126 70.4324 18.1054C70.262 18.1054 70.2052 18.1403 70.2095 18.3224C70.2226 18.9282 70.2197 19.5355 70.2095 20.1414C70.2066 20.3001 70.2532 20.3423 70.4105 20.3423C71.8829 20.3365 73.3567 20.3423 74.8291 20.3351C75.0243 20.3351 75.0738 20.3889 75.068 20.5797C75.0534 21.053 75.0607 21.5264 75.0651 21.9982C75.0651 22.1147 75.052 22.1759 74.9063 22.1759C72.6999 22.1715 70.495 22.1701 68.2886 22.1759C68.1269 22.1759 68.1255 22.1031 68.1255 21.9822C68.1284 20.4093 68.1269 18.8365 68.1269 17.265L68.1284 17.2636Z" fill="#94A3B8"/>
<path d="M31.1411 17.2709C31.1411 15.7111 31.144 14.1528 31.1367 12.593C31.1367 12.4139 31.1848 12.3731 31.3581 12.3745C33.5237 12.3804 35.6893 12.3818 37.8549 12.3745C38.0443 12.3745 38.085 12.4313 38.0807 12.609C38.069 13.0823 38.0705 13.5557 38.0807 14.0275C38.0836 14.1775 38.0428 14.2169 37.8928 14.2154C36.4131 14.2096 34.9335 14.2154 33.4553 14.2067C33.2659 14.2067 33.2251 14.2635 33.2281 14.4397C33.2397 14.9858 33.2383 15.532 33.2281 16.0781C33.2251 16.2383 33.2732 16.2762 33.4276 16.2747C34.8738 16.2689 36.3199 16.2747 37.7661 16.2674C37.9365 16.2674 37.9744 16.314 37.9714 16.4771C37.9598 16.9505 37.9569 17.4238 37.9714 17.8956C37.9773 18.082 37.9132 18.1097 37.7457 18.1097C36.3126 18.1039 34.8796 18.1097 33.448 18.1024C33.2776 18.1024 33.2222 18.1359 33.2266 18.318C33.2397 18.918 33.2412 19.518 33.2266 20.1166C33.2222 20.3132 33.2921 20.3394 33.4625 20.3394C34.9291 20.3336 36.3942 20.3394 37.8608 20.3321C38.0341 20.3321 38.0865 20.3715 38.0821 20.5506C38.0676 21.0297 38.0734 21.5103 38.0807 21.9895C38.0821 22.1235 38.0545 22.173 37.9074 22.173C35.7083 22.1686 33.5091 22.1672 31.31 22.173C31.1353 22.173 31.1396 22.09 31.1396 21.9662C31.1411 20.4006 31.1396 18.835 31.1396 17.2694L31.1411 17.2709Z" fill="#94A3B8"/>
<path d="M116.028 11.198C114.669 11.2038 113.419 10.8703 112.334 10.0212C112.035 9.78724 111.993 9.5183 112.208 9.2144C112.452 8.86633 112.703 8.52117 112.942 8.16728C113.022 8.04786 113.061 8.02018 113.185 8.13669C114.156 9.04692 115.301 9.46927 116.637 9.32072C117.038 9.27557 117.403 9.14596 117.665 8.8139C118.019 8.36826 117.911 7.85562 117.407 7.59929C116.795 7.28763 116.125 7.16239 115.466 7.00655C114.823 6.85509 114.183 6.69926 113.606 6.36575C112.987 6.00749 112.492 5.54145 112.317 4.81472C112.007 3.53166 112.531 2.3156 113.682 1.64276C114.455 1.18983 115.301 1.06021 116.182 1.08934C117.404 1.13157 118.531 1.45052 119.503 2.22676C119.771 2.44085 119.772 2.43939 119.564 2.71901C119.281 3.09912 118.996 3.47487 118.719 3.85789C118.638 3.97003 118.594 3.99916 118.466 3.89284C117.564 3.14281 116.517 2.85882 115.358 2.96659C115.109 2.9899 114.879 3.07728 114.684 3.24039C114.217 3.62924 114.287 4.24528 114.831 4.50743C115.399 4.78123 116.018 4.89191 116.623 5.04337C117.269 5.20503 117.917 5.36232 118.505 5.68563C119.181 6.057 119.739 6.54343 119.913 7.33278C120.209 8.67118 119.813 10.314 117.783 10.962C117.212 11.1441 116.625 11.2023 116.029 11.1994L116.028 11.198Z" fill="#94A3B8"/>
<path d="M80.2156 22.3099C78.8612 22.3798 77.6975 22.055 76.6504 21.3224C76.464 21.1928 76.2936 21.0428 76.1217 20.8957C76.0285 20.8156 76.0329 20.7617 76.1014 20.6671C76.429 20.2141 76.7524 19.7568 77.0669 19.2952C77.1499 19.1728 77.1922 19.1932 77.2854 19.2806C78.2393 20.1748 79.3636 20.5986 80.6758 20.4777C81.069 20.4413 81.4331 20.3336 81.7157 20.0321C82.1409 19.5792 82.0462 19.0068 81.4928 18.733C80.8972 18.4374 80.2476 18.3107 79.6083 18.1607C78.9529 18.0063 78.299 17.8505 77.7106 17.5097C77.0669 17.1368 76.5616 16.6417 76.4057 15.8785C76.1465 14.613 76.665 13.4566 77.7791 12.7969C78.3092 12.4823 78.8874 12.309 79.4976 12.2624C80.8316 12.159 82.0987 12.3629 83.2434 13.1071C83.4342 13.2309 83.6118 13.3707 83.7837 13.5178C83.855 13.5789 83.858 13.6226 83.8012 13.6984C83.4604 14.1498 83.1225 14.6042 82.7875 15.0615C82.7264 15.146 82.6841 15.13 82.6157 15.0703C81.8001 14.3639 80.836 14.0828 79.7758 14.0858C79.4874 14.0858 79.2049 14.1367 78.9486 14.2824C78.7316 14.4047 78.5743 14.578 78.5131 14.827C78.4257 15.1839 78.532 15.4358 78.8568 15.612C79.1976 15.7984 79.5704 15.9004 79.9433 15.9994C80.6307 16.1815 81.3326 16.3082 82.0011 16.5601C82.4511 16.7305 82.8749 16.9475 83.2463 17.2621C83.9366 17.8475 84.1842 18.6049 84.0939 19.4787C83.9468 20.9205 83.0803 21.8482 81.5788 22.1992C81.372 22.2472 81.1608 22.2938 80.9496 22.3069C80.6773 22.3259 80.4035 22.3113 80.2112 22.3113L80.2156 22.3099Z" fill="#94A3B8"/>
<path d="M100.177 22.3143C98.9059 22.3799 97.7423 22.0551 96.6937 21.324C96.5073 21.1944 96.3384 21.0444 96.1651 20.8973C96.0748 20.8201 96.0733 20.7662 96.1432 20.6686C96.4709 20.2157 96.7928 19.7584 97.1088 19.2967C97.1874 19.1831 97.2268 19.1831 97.3258 19.2764C98.2841 20.1793 99.4157 20.6017 100.735 20.4764C101.127 20.44 101.491 20.3264 101.769 20.0206C102.184 19.5662 102.088 19.0098 101.541 18.736C100.945 18.4389 100.295 18.3137 99.656 18.1622C99.0341 18.0151 98.4108 17.871 97.8443 17.5593C97.1336 17.169 96.5772 16.6491 96.436 15.8044C96.2044 14.4208 96.8379 13.2397 98.1166 12.6397C98.8739 12.2843 99.6749 12.2013 100.495 12.245C101.66 12.3062 102.732 12.6368 103.655 13.3752C103.833 13.5169 103.852 13.681 103.713 13.8674C103.431 14.2461 103.144 14.6218 102.87 15.0077C102.78 15.1345 102.73 15.1301 102.614 15.034C101.702 14.2854 100.652 13.9956 99.4841 14.1179C99.2205 14.1456 98.9802 14.2446 98.7851 14.431C98.3685 14.8301 98.453 15.3908 98.9671 15.6456C99.3938 15.8583 99.8555 15.9602 100.313 16.0782C100.994 16.2544 101.691 16.384 102.337 16.6782C102.628 16.8107 102.908 16.9622 103.164 17.1573C103.954 17.7603 104.248 18.5715 104.133 19.5341C103.964 20.9468 103.102 21.8454 101.625 22.1993C101.146 22.3143 100.664 22.3318 100.174 22.3129L100.177 22.3143Z" fill="#94A3B8"/>
<path d="M52.5243 4.493C52.5243 5.48624 52.5519 6.47948 52.5184 7.47127C52.4514 9.44319 51.1422 10.8559 49.1805 11.1195C48.11 11.2636 47.0512 11.2433 46.0318 10.8398C44.7036 10.3156 43.971 9.31794 43.7599 7.91983C43.7089 7.58341 43.6958 7.24407 43.6958 6.90328C43.6958 5.08428 43.6987 3.26383 43.6914 1.44482C43.6914 1.26715 43.7351 1.22054 43.9128 1.22491C44.4589 1.23656 45.0065 1.23802 45.5526 1.22491C45.7522 1.22054 45.8177 1.26132 45.8162 1.47832C45.806 3.3046 45.8104 5.13089 45.8104 6.95717C45.8104 7.25864 45.8381 7.55574 45.9196 7.84701C46.1556 8.67859 46.7891 9.21745 47.6469 9.31794C48.0547 9.366 48.4596 9.36163 48.8586 9.26697C49.6611 9.07618 50.2203 8.45431 50.3616 7.61108C50.398 7.39262 50.4067 7.17417 50.4067 6.95426C50.4067 5.11487 50.4082 3.27548 50.4023 1.43609C50.4023 1.27006 50.446 1.22346 50.6106 1.22637C51.1844 1.23656 51.7568 1.23656 52.3306 1.22637C52.4937 1.22346 52.5432 1.26423 52.5417 1.43317C52.533 2.45263 52.5374 3.47209 52.5374 4.493C52.533 4.493 52.5272 4.493 52.5228 4.493H52.5243Z" fill="#94A3B8"/>
<path d="M48.5512 22.1702C48.2818 22.1702 48.0168 22.1702 47.7532 22.1702C47.2594 22.1702 46.7657 22.1659 46.2735 22.1732C46.138 22.1761 46.0594 22.1309 45.9822 22.0188C45.2569 20.9498 44.5244 19.8852 43.7947 18.8191C43.6899 18.6667 43.5831 18.6696 43.4743 18.8279C42.7418 19.8925 42.0092 20.9556 41.2796 22.0217C41.217 22.1134 41.1573 22.1746 41.0291 22.1746C40.3024 22.1673 39.5757 22.1717 38.8489 22.1702C38.8111 22.1702 38.7732 22.1659 38.7324 22.163C38.7324 22.0785 38.7892 22.0363 38.8256 21.9838C39.9281 20.4226 41.0306 18.8614 42.1403 17.3045C42.2248 17.1866 42.219 17.1123 42.1389 16.9972C41.1048 15.5263 40.0766 14.051 39.047 12.5772C39.0091 12.5233 38.9742 12.4665 38.9378 12.4111C38.9931 12.3543 39.0557 12.3806 39.1111 12.3806C39.8116 12.3791 40.5106 12.3835 41.2112 12.3762C41.3495 12.3747 41.4252 12.4228 41.4995 12.5349C42.1665 13.5384 42.8408 14.5374 43.5122 15.538C43.5967 15.6632 43.6792 15.6656 43.7598 15.5452C44.4224 14.5462 45.088 13.55 45.7434 12.5466C45.8278 12.4184 45.9167 12.3747 46.0667 12.3762C46.8182 12.3835 47.5711 12.3791 48.3386 12.3791C48.3226 12.4767 48.2614 12.5306 48.2177 12.5917C47.1939 14.0539 46.1715 15.5161 45.1419 16.9739C45.053 17.0992 45.056 17.1735 45.1433 17.2972C46.2473 18.8497 47.3425 20.408 48.4406 21.9649C48.4813 22.0217 48.5396 22.0712 48.5512 22.1702Z" fill="#94A3B8"/>
<path d="M73.1377 6.11802C73.1377 4.55242 73.1391 2.98683 73.1348 1.42124C73.1348 1.27851 73.1624 1.22754 73.3197 1.22754C74.8329 1.23482 76.3446 1.22754 77.8578 1.23919C78.8277 1.24793 79.6884 1.55668 80.3088 2.33146C81.1011 3.32179 81.2161 4.45048 80.7763 5.60974C80.3511 6.72823 79.4743 7.3268 78.299 7.48554C77.6437 7.57438 76.981 7.50885 76.3227 7.52341C76.0169 7.52923 75.7096 7.53215 75.4038 7.5205C75.2596 7.51467 75.229 7.56419 75.229 7.69963C75.2348 8.73219 75.2261 9.76476 75.2363 10.7973C75.2378 10.9866 75.181 11.0289 75.0033 11.026C74.444 11.0143 73.8833 11.0158 73.3241 11.026C73.1712 11.0289 73.1362 10.9808 73.1362 10.8337C73.142 9.26085 73.1391 7.68944 73.1391 6.11656L73.1377 6.11802ZM75.229 4.37038C75.229 4.7636 75.2319 5.15681 75.2276 5.54858C75.2276 5.64615 75.245 5.6913 75.3572 5.68984C76.1101 5.68402 76.8631 5.69713 77.6145 5.67674C78.2146 5.66072 78.7199 5.25148 78.8394 4.73592C79.0505 3.82861 78.4738 3.09606 77.5141 3.07421C76.8019 3.05819 76.0883 3.07421 75.3761 3.06693C75.2421 3.06693 75.2246 3.11936 75.2276 3.2315C75.2334 3.61161 75.229 3.99027 75.229 4.37038Z" fill="#94A3B8"/>
<path d="M49.5151 17.28C49.5151 15.7144 49.518 14.1489 49.5107 12.5833C49.5107 12.4172 49.5544 12.375 49.7205 12.375C51.1593 12.3823 52.5997 12.3794 54.0386 12.3794C55.0071 12.3794 55.9013 12.6095 56.5683 13.3537C57.445 14.3324 57.6023 15.4873 57.1741 16.6931C56.7562 17.8699 55.8503 18.5005 54.6226 18.6388C53.7007 18.7422 52.7715 18.6665 51.8468 18.6752C51.6574 18.6767 51.5904 18.7044 51.5933 18.917C51.6065 19.9423 51.5963 20.969 51.6021 21.9958C51.6021 22.1327 51.5715 22.1763 51.4273 22.1749C50.855 22.1661 50.2812 22.1661 49.7088 22.1749C49.5515 22.1778 49.5107 22.1356 49.5107 21.9783C49.5166 20.4127 49.5151 18.8471 49.5151 17.2815V17.28ZM51.5992 15.5178C51.5992 15.9111 51.5992 16.3043 51.5992 16.6975C51.5992 16.7834 51.5933 16.8475 51.7186 16.846C52.4715 16.8388 53.2245 16.8562 53.976 16.8315C54.5789 16.8125 55.0697 16.4252 55.2066 15.9198C55.4323 15.0824 54.9241 14.3207 54.059 14.2406C53.2827 14.1692 52.5007 14.2275 51.723 14.21C51.6021 14.2071 51.5992 14.2683 51.5992 14.3586C51.6021 14.7445 51.5992 15.1319 51.5992 15.5178Z" fill="#94A3B8"/>
<path d="M64.9258 7.04719C64.9258 8.30694 64.9229 9.5667 64.9287 10.8265C64.9287 10.9808 64.8923 11.0303 64.7321 11.0274C64.1656 11.0172 63.5991 11.0158 63.0326 11.0274C62.8578 11.0318 62.8301 10.9706 62.8301 10.8133C62.8345 8.31422 62.8301 5.8151 62.8389 3.31598C62.8389 3.11209 62.7879 3.06403 62.5884 3.06694C61.7757 3.07859 60.9616 3.06694 60.149 3.07568C59.9989 3.07568 59.9582 3.03635 59.9611 2.88635C59.9713 2.38681 59.9684 1.88728 59.9611 1.38629C59.9596 1.2625 59.9989 1.229 60.1198 1.229C62.6189 1.23192 65.1181 1.23192 67.6187 1.229C67.757 1.229 67.7847 1.27706 67.7832 1.40086C67.7774 1.90039 67.7759 2.39992 67.7832 2.90091C67.7861 3.04801 67.7308 3.07568 67.5983 3.07422C66.7725 3.06839 65.9453 3.07568 65.1195 3.06839C64.9579 3.06694 64.9229 3.11645 64.9229 3.27083C64.9287 4.53059 64.9258 5.79034 64.9258 7.0501V7.04719Z" fill="#94A3B8"/>
<path d="M54.3911 6.12115C54.3911 4.55555 54.394 2.98996 54.3867 1.42437C54.3867 1.26417 54.4319 1.2263 54.5862 1.22776C55.1528 1.23649 55.7193 1.23941 56.2858 1.22776C56.462 1.22339 56.4868 1.28455 56.4868 1.44184C56.4824 3.94679 56.4868 6.45174 56.4781 8.95669C56.4781 9.15039 56.5261 9.19699 56.7184 9.19553C57.9577 9.18534 59.1971 9.19408 60.4365 9.1868C60.5952 9.1868 60.6389 9.22903 60.6345 9.38632C60.6243 9.87274 60.6287 10.3592 60.6331 10.8456C60.6331 10.9636 60.6185 11.0247 60.4729 11.0247C58.4937 11.0204 56.5145 11.0204 54.5367 11.0247C54.3765 11.0247 54.3896 10.9432 54.3896 10.8383C54.3896 9.26544 54.3896 7.69402 54.3896 6.12115H54.3911Z" fill="#94A3B8"/>
<path d="M69.1162 6.12563C69.1162 4.57315 69.122 3.02212 69.1104 1.46963C69.1089 1.257 69.173 1.22205 69.3638 1.22642C69.9157 1.23952 70.4692 1.23516 71.0226 1.22787C71.1566 1.22642 71.2032 1.25263 71.2032 1.39972C71.1988 4.54984 71.1988 7.69996 71.2032 10.8501C71.2032 10.9957 71.1566 11.0248 71.0226 11.0234C70.4502 11.0161 69.8764 11.0132 69.3041 11.0248C69.1351 11.0278 69.1133 10.9666 69.1133 10.821C69.1177 9.25536 69.1162 7.69123 69.1162 6.12563Z" fill="#94A3B8"/>
<path d="M26.9253 11.6988C26.9253 8.23267 26.9267 4.76797 26.9209 1.30182C26.9209 1.10521 26.9704 1.05861 27.1612 1.06443C27.6345 1.079 27.6345 1.0688 27.6345 1.54504C27.6345 8.39578 27.6345 15.248 27.6345 22.0987C27.6345 22.39 27.668 22.3507 27.3782 22.3521C26.9267 22.355 26.9267 22.3521 26.9267 21.8963V11.6988H26.9253Z" fill="#94A3B8"/>
</svg>
